<?xml version="1.0" encoding="UTF-8"?>
<svg xmlns="http://www.w3.org/2000/svg" xmlns:xlink="http://www.w3.org/1999/xlink" width="256" height="256" viewBox="0 0 256 256" version="1.1">
<defs>
<filter id="alpha" filterUnits="objectBoundingBox" x="0%" y="0%" width="100%" height="100%">
  <feColorMatrix type="matrix" in="SourceGraphic" values="0 0 0 0 1 0 0 0 0 1 0 0 0 0 1 0 0 0 1 0"/>
</filter>
<mask id="mask0">
  <g filter="url(#alpha)">
<rect x="0" y="0" width="256" height="256" style="fill:rgb(0%,0%,0%);fill-opacity:0.73;stroke:none;"/>
  </g>
</mask>
<clipPath id="clip1">
  <rect x="0" y="0" width="256" height="256"/>
</clipPath>
<g id="surface11" clip-path="url(#clip1)">
<path style=" stroke:none;fill-rule:nonzero;fill:rgb(1.568628%,88.627452%,43.137255%);fill-opacity:1;" d="M 73.546875 197.855469 C 71.859375 197.335938 69.761719 195.652344 68.980469 194.175781 L 68.230469 192.785156 L 68.132812 128.328125 C 68.070312 83.683594 68.132812 63.550781 68.386719 62.796875 C 68.824219 61.378906 71.167969 59.03125 72.828125 58.367188 C 73.578125 58.046875 74.265625 57.671875 74.363281 57.523438 C 74.613281 57.234375 77.332031 57.234375 77.867188 57.554688 C 78.085938 57.671875 100.925781 57.84375 128.617188 57.929688 C 178.929688 58.074219 178.992188 58.074219 180.402344 58.683594 C 182.125 59.4375 184.25 61.523438 184.78125 62.972656 C 185.03125 63.695312 185.09375 64.796875 184.96875 66.128906 C 184.84375 67.289062 184.75 68.476562 184.71875 68.792969 C 184.65625 69.578125 181.652344 72.097656 180.183594 72.589844 C 179.214844 72.910156 170.640625 72.964844 131.371094 72.996094 L 83.71875 72.996094 L 83.71875 131.890625 C 83.71875 181.71875 83.65625 191.019531 83.277344 192.351562 C 83.027344 193.21875 82.902344 194.03125 82.964844 194.148438 C 83.121094 194.378906 80.179688 196.988281 79.148438 197.507812 C 78.148438 198 74.738281 198.203125 73.546875 197.855469 Z M 73.546875 197.855469 "/>
<path style=" stroke:none;fill-rule:nonzero;fill:rgb(1.568628%,88.627452%,43.137255%);fill-opacity:1;" d="M 97.953125 197.828125 C 96.328125 197.363281 94.167969 195.683594 93.449219 194.292969 C 92.570312 192.640625 92.320312 190.527344 92.757812 188.960938 C 93.230469 187.425781 95.480469 185.082031 97.234375 184.386719 C 97.984375 184.066406 98.765625 183.660156 98.988281 183.429688 C 99.332031 183.140625 107.339844 183.082031 140.445312 183.140625 C 181.371094 183.226562 181.496094 183.226562 182.90625 183.835938 C 184.625 184.585938 186.753906 186.671875 187.285156 188.121094 C 187.535156 188.847656 187.597656 189.945312 187.472656 191.28125 C 187.347656 192.4375 187.253906 193.625 187.222656 193.945312 C 187.160156 194.726562 184.15625 197.246094 182.6875 197.738281 C 181.714844 198.058594 174.207031 198.117188 140.195312 198.117188 C 116.195312 198.085938 98.484375 197.972656 97.953125 197.828125 Z M 97.953125 197.828125 "/>
<path style=" stroke:none;fill-rule:nonzero;fill:rgb(1.568628%,88.627452%,43.137255%);fill-opacity:1;" d="M 99.832031 137.859375 C 98.203125 137.394531 96.046875 135.714844 95.324219 134.324219 C 94.449219 132.644531 94.199219 130.558594 94.667969 128.9375 C 95.105469 127.429688 98.046875 124.503906 99.488281 124.15625 C 99.957031 124.039062 100.582031 123.75 100.832031 123.519531 C 101.238281 123.140625 103.554688 123.113281 118.105469 123.171875 C 134.375 123.257812 134.90625 123.289062 136.285156 123.867188 C 138.003906 124.621094 140.132812 126.707031 140.664062 128.152344 C 140.914062 128.878906 140.976562 129.980469 140.851562 131.3125 C 140.726562 132.46875 140.632812 133.660156 140.601562 133.976562 C 140.539062 134.757812 137.535156 137.28125 136.066406 137.773438 C 135.125 138.0625 131.402344 138.148438 117.824219 138.148438 C 108.4375 138.121094 100.363281 138.003906 99.832031 137.859375 Z M 99.832031 137.859375 "/>
<path style=" stroke:none;fill-rule:nonzero;fill:rgb(1.568628%,88.627452%,43.137255%);fill-opacity:1;" d="M 152.492188 137.886719 C 151.175781 137.511719 148.894531 135.945312 148.203125 134.902344 C 147.171875 133.339844 146.796875 131.226562 147.234375 129.285156 C 147.578125 127.863281 147.859375 127.402344 149.394531 126.011719 C 150.363281 125.113281 151.554688 124.273438 152.054688 124.15625 C 152.523438 124.039062 153.148438 123.75 153.398438 123.519531 C 153.804688 123.140625 155.746094 123.085938 167.542969 123.171875 C 183.09375 123.257812 182.75 123.230469 185.316406 125.777344 C 186.941406 127.429688 187.410156 128.820312 187.160156 131.253906 C 187.066406 132.269531 186.941406 133.425781 186.910156 133.832031 C 186.816406 134.757812 183.96875 137.222656 182.375 137.773438 C 181.433594 138.0625 178.210938 138.148438 167.261719 138.148438 C 159.59375 138.121094 152.960938 138.03125 152.492188 137.886719 Z M 152.492188 137.886719 "/>
</g>
</defs>
<g id="surface1">
<path style=" stroke:none;fill-rule:nonzero;fill:rgb(71.764708%,71.764708%,71.764708%);fill-opacity:1;" d="M 106.648438 249.640625 C 83.085938 246.054688 62.722656 236.933594 44.488281 221.761719 C 40.808594 218.699219 32.921875 210.8125 29.859375 207.132812 C 12.8125 186.613281 3.101562 162.730469 1.066406 136.3125 C 0.769531 132.359375 0.769531 122.851562 1.066406 118.898438 C 3.101562 92.480469 12.8125 68.597656 29.859375 48.074219 C 32.921875 44.394531 40.808594 36.511719 44.488281 33.449219 C 64.644531 16.695312 87.792969 7.121094 113.847656 4.769531 C 115.996094 4.585938 118.507812 4.332031 119.445312 4.21875 C 120.382812 4.105469 122.761719 3.875 124.726562 3.738281 C 133.136719 3.097656 147.671875 5.066406 158.867188 8.332031 C 161.175781 9.019531 168.535156 11.488281 169.609375 11.964844 C 171.527344 12.789062 173.972656 13.839844 174.410156 14 C 174.660156 14.113281 175.710938 14.617188 176.738281 15.144531 C 177.746094 15.644531 178.75 16.078125 178.957031 16.078125 C 179.164062 16.078125 179.324219 16.195312 179.324219 16.308594 C 179.324219 16.445312 179.527344 16.539062 179.78125 16.539062 C 180.03125 16.539062 180.238281 16.652344 180.238281 16.765625 C 180.238281 16.902344 180.441406 16.996094 180.695312 16.996094 C 180.945312 16.996094 181.152344 17.0625 181.152344 17.175781 C 181.152344 17.269531 181.46875 17.496094 181.882812 17.65625 C 182.292969 17.839844 183.664062 18.59375 184.945312 19.324219 C 186.199219 20.054688 187.367188 20.652344 187.527344 20.652344 C 187.664062 20.652344 187.777344 20.742188 187.777344 20.878906 C 187.777344 20.992188 188.03125 21.152344 188.347656 21.246094 C 188.667969 21.3125 188.921875 21.449219 188.921875 21.542969 C 188.921875 21.632812 189.195312 21.863281 189.5625 22.042969 C 189.902344 22.226562 191.273438 23.117188 192.601562 24.011719 C 193.949219 24.925781 195.089844 25.679688 195.160156 25.679688 C 195.226562 25.679688 195.570312 25.929688 195.914062 26.25 C 196.257812 26.570312 196.667969 26.820312 196.828125 26.820312 C 196.988281 26.820312 197.214844 26.957031 197.308594 27.140625 C 197.398438 27.300781 197.902344 27.710938 198.40625 28.007812 C 198.90625 28.328125 199.546875 28.808594 199.820312 29.082031 C 200.097656 29.359375 200.414062 29.5625 200.507812 29.5625 C 200.597656 29.5625 201.148438 29.976562 201.695312 30.476562 C 202.265625 30.980469 202.769531 31.390625 202.839844 31.390625 C 202.90625 31.390625 203.546875 31.917969 204.234375 32.535156 C 204.917969 33.152344 205.992188 34.113281 206.609375 34.636719 C 208.324219 36.144531 215.84375 43.664062 217.257812 45.308594 C 217.945312 46.109375 218.628906 46.886719 218.746094 47.023438 C 218.882812 47.160156 219.339844 47.730469 219.773438 48.304688 C 220.527344 49.261719 220.914062 49.71875 221.714844 50.613281 C 221.898438 50.816406 222.058594 51.046875 222.058594 51.160156 C 222.058594 51.273438 222.21875 51.503906 222.402344 51.707031 C 223.199219 52.53125 225.097656 55.046875 225.28125 55.546875 C 225.394531 55.84375 225.578125 56.074219 225.714844 56.074219 C 225.828125 56.074219 225.941406 56.234375 225.941406 56.417969 C 225.941406 56.597656 226.058594 56.757812 226.171875 56.757812 C 226.308594 56.757812 226.398438 56.917969 226.398438 57.101562 C 226.398438 57.285156 226.492188 57.445312 226.582031 57.445312 C 226.699219 57.445312 226.925781 57.71875 227.109375 58.085938 C 227.292969 58.425781 227.496094 58.746094 227.566406 58.816406 C 228.046875 59.203125 232.226562 66.152344 233.554688 68.757812 C 236.820312 75.246094 237.710938 77.167969 239.496094 81.691406 C 250.191406 108.75 250.992188 139.558594 241.710938 167.371094 C 236.753906 182.246094 229.371094 195.433594 219.085938 207.820312 C 216.023438 211.5 207.910156 219.613281 204.234375 222.675781 C 191.960938 232.867188 178.773438 240.273438 164.125 245.183594 C 156.285156 247.835938 152.492188 248.613281 143.328125 249.574219 C 140.128906 249.894531 136.835938 249.984375 124.472656 250.007812 C 110.761719 250.054688 109.253906 250.03125 106.648438 249.640625 Z M 133.160156 239.816406 C 149.542969 238.96875 164.035156 235.289062 178.523438 228.273438 C 190.359375 222.558594 200.894531 215.066406 210.3125 205.671875 C 237.210938 178.75 249.253906 140.996094 242.945312 103.265625 C 239.976562 85.464844 232.503906 68.003906 221.488281 53.21875 C 215.339844 44.945312 207.25 36.671875 199.25 30.5 C 196.644531 28.464844 190.542969 24.191406 189.835938 23.875 C 189.652344 23.804688 188.898438 23.347656 188.1875 22.867188 C 187.457031 22.410156 186.636719 21.90625 186.359375 21.769531 C 186.0625 21.65625 185.425781 21.289062 184.921875 20.992188 C 184.417969 20.671875 183.296875 20.078125 182.40625 19.621094 C 181.539062 19.1875 180.488281 18.617188 180.078125 18.367188 C 179.6875 18.089844 179.140625 17.839844 178.863281 17.792969 C 178.589844 17.75 177.722656 17.335938 176.898438 16.878906 C 176.101562 16.421875 175.4375 16.125 175.4375 16.195312 C 175.4375 16.285156 174.980469 16.078125 174.410156 15.761719 C 173.835938 15.417969 173.378906 15.210938 173.378906 15.28125 C 173.378906 15.371094 173.015625 15.210938 172.582031 14.9375 C 172.144531 14.664062 171.78125 14.503906 171.78125 14.570312 C 171.78125 14.664062 171.527344 14.550781 171.210938 14.34375 C 170.890625 14.136719 170.636719 14.046875 170.636719 14.113281 C 170.636719 14.207031 170.386719 14.09375 170.066406 13.886719 C 169.746094 13.679688 169.496094 13.589844 169.496094 13.679688 C 169.496094 13.773438 169.335938 13.726562 169.152344 13.566406 C 168.96875 13.40625 168.808594 13.359375 168.808594 13.429688 C 168.808594 13.519531 168.582031 13.453125 168.308594 13.292969 C 168.011719 13.132812 167.710938 12.996094 167.621094 12.972656 C 167.507812 12.949219 167.394531 12.902344 167.324219 12.878906 C 167.253906 12.859375 167.117188 12.789062 166.980469 12.765625 C 166.867188 12.742188 166.707031 12.675781 166.636719 12.652344 C 166.570312 12.628906 166.433594 12.5625 166.296875 12.539062 C 166.179688 12.515625 166.042969 12.46875 166.023438 12.421875 C 165.976562 12.402344 165.769531 12.355469 165.566406 12.308594 C 164.808594 12.171875 163.4375 11.667969 163.164062 11.441406 C 163.003906 11.328125 162.867188 11.304688 162.867188 11.394531 C 162.867188 11.488281 162.707031 11.441406 162.523438 11.28125 C 162.34375 11.121094 162.183594 11.074219 162.183594 11.167969 C 162.183594 11.257812 162.023438 11.210938 161.839844 11.050781 C 161.65625 10.890625 161.496094 10.847656 161.496094 10.9375 C 161.496094 11.03125 161.359375 10.984375 161.199219 10.847656 C 161.015625 10.710938 160.8125 10.664062 160.742188 10.753906 C 160.652344 10.824219 160.445312 10.753906 160.238281 10.59375 C 160.058594 10.433594 159.898438 10.390625 159.898438 10.480469 C 159.898438 10.574219 159.761719 10.527344 159.601562 10.390625 C 159.417969 10.253906 159.210938 10.207031 159.144531 10.296875 C 159.050781 10.367188 158.84375 10.296875 158.640625 10.136719 C 158.457031 9.976562 158.296875 9.933594 158.296875 10.046875 C 158.296875 10.136719 158.183594 10.117188 158.046875 9.976562 C 157.910156 9.839844 157.65625 9.773438 157.496094 9.816406 C 157.335938 9.886719 157.132812 9.839844 157.0625 9.703125 C 156.972656 9.566406 156.765625 9.519531 156.605469 9.589844 C 156.421875 9.660156 156.21875 9.613281 156.148438 9.476562 C 156.058594 9.339844 155.851562 9.292969 155.691406 9.359375 C 155.507812 9.429688 155.304688 9.382812 155.234375 9.246094 C 155.144531 9.109375 154.9375 9.0625 154.777344 9.132812 C 154.59375 9.203125 154.390625 9.15625 154.320312 9.042969 C 154.253906 8.902344 153.976562 8.859375 153.75 8.925781 C 153.519531 8.996094 153.246094 8.925781 153.179688 8.789062 C 153.085938 8.675781 152.882812 8.605469 152.722656 8.675781 C 152.539062 8.742188 152.332031 8.699219 152.265625 8.585938 C 152.195312 8.445312 151.921875 8.402344 151.691406 8.46875 C 151.464844 8.539062 151.191406 8.46875 151.121094 8.355469 C 151.050781 8.21875 150.777344 8.171875 150.550781 8.242188 C 150.320312 8.308594 150.046875 8.242188 149.980469 8.128906 C 149.910156 7.988281 149.636719 7.945312 149.40625 8.011719 C 149.179688 8.082031 148.90625 8.011719 148.835938 7.875 C 148.746094 7.738281 148.425781 7.691406 148.128906 7.761719 C 147.851562 7.828125 147.535156 7.785156 147.464844 7.671875 C 147.394531 7.53125 147.121094 7.488281 146.871094 7.554688 C 146.617188 7.625 146.277344 7.554688 146.09375 7.417969 C 145.933594 7.28125 145.613281 7.214844 145.40625 7.304688 C 145.203125 7.371094 144.859375 7.371094 144.652344 7.28125 C 144.425781 7.191406 143.96875 7.121094 143.625 7.144531 C 143.304688 7.167969 142.960938 7.097656 142.894531 6.960938 C 142.800781 6.847656 142.414062 6.800781 141.980469 6.871094 C 141.570312 6.9375 141.15625 6.894531 141.066406 6.757812 C 140.996094 6.617188 140.539062 6.574219 140.039062 6.640625 C 139.535156 6.710938 139.101562 6.664062 139.007812 6.527344 C 138.917969 6.390625 138.390625 6.34375 137.636719 6.414062 C 136.90625 6.480469 136.359375 6.4375 136.265625 6.296875 C 136.175781 6.140625 135.511719 6.117188 134.4375 6.183594 C 133.5 6.253906 132.542969 6.230469 132.3125 6.140625 C 131.695312 5.886719 122.875 5.863281 122.875 6.117188 C 122.875 6.230469 122.027344 6.253906 120.816406 6.183594 C 119.378906 6.070312 118.761719 6.117188 118.761719 6.277344 C 118.761719 6.457031 118.347656 6.503906 117.390625 6.390625 C 116.40625 6.277344 116.019531 6.296875 116.019531 6.503906 C 116.019531 6.6875 115.699219 6.710938 114.988281 6.617188 C 114.28125 6.503906 113.960938 6.527344 113.960938 6.710938 C 113.960938 6.894531 113.664062 6.9375 113.046875 6.824219 C 112.40625 6.710938 112.132812 6.757812 112.132812 6.9375 C 112.132812 7.144531 111.882812 7.167969 111.332031 7.074219 C 110.808594 6.960938 110.535156 7.007812 110.535156 7.167969 C 110.535156 7.328125 110.257812 7.371094 109.734375 7.257812 C 109.183594 7.167969 108.933594 7.191406 108.933594 7.394531 C 108.933594 7.578125 108.707031 7.601562 108.25 7.511719 C 107.8125 7.417969 107.5625 7.441406 107.5625 7.601562 C 107.5625 7.738281 107.289062 7.785156 106.878906 7.714844 C 106.441406 7.625 106.191406 7.671875 106.191406 7.828125 C 106.191406 7.988281 105.984375 8.035156 105.621094 7.945312 C 105.253906 7.851562 105.046875 7.898438 105.046875 8.058594 C 105.046875 8.21875 104.84375 8.265625 104.476562 8.171875 C 104.113281 8.082031 103.90625 8.128906 103.90625 8.285156 C 103.90625 8.445312 103.699219 8.492188 103.335938 8.402344 C 103.015625 8.332031 102.761719 8.355469 102.761719 8.492188 C 102.761719 8.628906 102.558594 8.675781 102.304688 8.605469 C 102.054688 8.539062 101.847656 8.605469 101.847656 8.742188 C 101.847656 8.902344 101.644531 8.949219 101.277344 8.859375 C 100.957031 8.789062 100.707031 8.8125 100.707031 8.949219 C 100.707031 9.085938 100.5 9.132812 100.25 9.0625 C 100 8.996094 99.792969 9.042969 99.792969 9.179688 C 99.792969 9.316406 99.585938 9.359375 99.335938 9.292969 C 99.085938 9.222656 98.878906 9.269531 98.878906 9.40625 C 98.878906 9.542969 98.671875 9.589844 98.421875 9.519531 C 98.167969 9.453125 97.964844 9.5 97.964844 9.589844 C 97.964844 9.703125 97.644531 9.816406 97.253906 9.816406 C 96.867188 9.839844 96.480469 9.933594 96.386719 10.046875 C 96.320312 10.160156 95.953125 10.273438 95.566406 10.296875 C 95.199219 10.320312 94.855469 10.457031 94.808594 10.59375 C 94.765625 10.710938 94.628906 10.777344 94.511719 10.6875 C 94.261719 10.550781 91.976562 11.257812 91.792969 11.53125 C 91.609375 11.785156 89.804688 12.421875 89.667969 12.261719 C 89.460938 12.082031 87.132812 12.925781 86.925781 13.246094 C 86.835938 13.40625 86.628906 13.496094 86.445312 13.429688 C 86.058594 13.292969 82.582031 14.664062 82.378906 15.050781 C 82.265625 15.210938 82.011719 15.304688 81.785156 15.234375 C 81.554688 15.1875 81.121094 15.394531 80.734375 15.738281 C 80.390625 16.058594 80 16.261719 79.886719 16.171875 C 79.613281 16.011719 78.308594 16.515625 78.308594 16.789062 C 78.308594 17.0625 76.574219 17.929688 76.390625 17.75 C 76.207031 17.542969 74.402344 18.386719 74.5625 18.617188 C 74.675781 18.824219 73.03125 19.738281 72.503906 19.738281 C 71.957031 19.738281 70.996094 20.238281 71.132812 20.46875 C 71.269531 20.671875 71.089844 20.742188 70.015625 20.96875 C 69.671875 21.0625 69.441406 21.222656 69.511719 21.335938 C 69.648438 21.566406 69.488281 21.65625 68.414062 21.886719 C 68.070312 21.976562 67.84375 22.113281 67.890625 22.226562 C 67.957031 22.34375 67.707031 22.480469 67.316406 22.570312 C 66.929688 22.640625 66.679688 22.800781 66.769531 22.9375 C 66.839844 23.050781 66.699219 23.164062 66.449219 23.164062 C 66.175781 23.164062 65.992188 23.300781 66.015625 23.460938 C 66.0625 23.621094 65.808594 23.757812 65.445312 23.804688 C 65.101562 23.851562 64.871094 23.988281 64.941406 24.101562 C 65.03125 24.214844 64.871094 24.308594 64.597656 24.308594 C 64.324219 24.308594 64.1875 24.421875 64.253906 24.535156 C 64.324219 24.671875 64.1875 24.765625 63.914062 24.765625 C 63.636719 24.765625 63.5 24.878906 63.570312 24.992188 C 63.636719 25.128906 63.5 25.222656 63.226562 25.222656 C 62.953125 25.222656 62.816406 25.3125 62.882812 25.449219 C 62.953125 25.5625 62.816406 25.679688 62.542969 25.679688 C 62.265625 25.679688 62.128906 25.769531 62.199219 25.90625 C 62.265625 26.019531 62.128906 26.136719 61.855469 26.136719 C 61.582031 26.136719 61.445312 26.25 61.511719 26.363281 C 61.582031 26.5 61.445312 26.59375 61.171875 26.59375 C 60.894531 26.59375 60.757812 26.707031 60.828125 26.820312 C 60.894531 26.957031 60.757812 27.050781 60.507812 27.050781 C 60.234375 27.050781 60.027344 27.210938 60.027344 27.390625 C 60.027344 27.574219 59.820312 27.734375 59.546875 27.734375 C 59.296875 27.734375 59.160156 27.847656 59.226562 27.964844 C 59.296875 28.101562 59.160156 28.191406 58.90625 28.191406 C 58.632812 28.191406 58.449219 28.328125 58.472656 28.464844 C 58.519531 28.625 58.3125 28.785156 58.039062 28.832031 C 57.742188 28.878906 57.515625 29.0625 57.515625 29.242188 C 57.515625 29.425781 57.308594 29.5625 57.054688 29.5625 C 56.804688 29.5625 56.597656 29.699219 56.597656 29.882812 C 56.597656 30.066406 56.371094 30.25 56.097656 30.292969 C 55.800781 30.339844 55.570312 30.523438 55.570312 30.707031 C 55.570312 30.890625 55.34375 31.070312 55.046875 31.117188 C 54.769531 31.164062 54.589844 31.277344 54.65625 31.390625 C 54.792969 31.621094 54.335938 32.007812 53.742188 32.125 C 53.492188 32.167969 53.285156 32.351562 53.285156 32.535156 C 53.285156 32.71875 53.082031 32.898438 52.828125 32.945312 C 52.257812 33.058594 51.777344 33.449219 51.914062 33.675781 C 52.050781 33.90625 51.570312 34.292969 51.023438 34.386719 C 50.773438 34.429688 50.40625 34.773438 50.199219 35.140625 C 50.019531 35.503906 49.675781 35.894531 49.445312 36.007812 C 49.242188 36.101562 48.875 36.28125 48.667969 36.375 C 48.441406 36.488281 48.144531 36.808594 47.984375 37.105469 C 47.664062 37.746094 42.179688 43.277344 41.882812 43.277344 C 41.515625 43.277344 40.855469 43.984375 40.96875 44.28125 C 41.082031 44.578125 40.441406 45.265625 39.621094 45.652344 C 39.34375 45.8125 39.117188 46.109375 39.117188 46.339844 C 39.117188 46.589844 38.820312 46.953125 38.429688 47.160156 C 38.019531 47.390625 37.769531 47.710938 37.8125 47.9375 C 37.859375 48.167969 37.675781 48.394531 37.355469 48.507812 C 37.058594 48.601562 36.832031 48.898438 36.832031 49.125 C 36.832031 49.355469 36.625 49.652344 36.351562 49.789062 C 36.101562 49.902344 35.917969 50.15625 35.984375 50.3125 C 36.03125 50.453125 35.804688 50.679688 35.484375 50.816406 C 35.070312 50.953125 34.933594 51.136719 35.027344 51.386719 C 35.140625 51.640625 35.027344 51.800781 34.707031 51.890625 C 34.410156 51.960938 34.273438 52.121094 34.363281 52.347656 C 34.453125 52.554688 34.316406 52.714844 34.019531 52.804688 C 33.722656 52.875 33.585938 53.035156 33.675781 53.261719 C 33.769531 53.46875 33.632812 53.628906 33.335938 53.71875 C 33.039062 53.789062 32.902344 53.949219 32.992188 54.152344 C 33.0625 54.335938 32.96875 54.472656 32.742188 54.472656 C 32.511719 54.472656 32.445312 54.609375 32.535156 54.839844 C 32.625 55.066406 32.511719 55.226562 32.191406 55.320312 C 31.894531 55.386719 31.757812 55.546875 31.847656 55.753906 C 31.917969 55.9375 31.828125 56.074219 31.597656 56.074219 C 31.371094 56.074219 31.300781 56.210938 31.371094 56.417969 C 31.460938 56.621094 31.371094 56.757812 31.140625 56.757812 C 30.914062 56.757812 30.84375 56.894531 30.914062 57.101562 C 31.003906 57.308594 30.914062 57.445312 30.683594 57.445312 C 30.457031 57.445312 30.386719 57.582031 30.457031 57.789062 C 30.546875 57.992188 30.457031 58.128906 30.226562 58.128906 C 30 58.128906 29.929688 58.265625 30 58.472656 C 30.089844 58.679688 30 58.816406 29.769531 58.816406 C 29.542969 58.816406 29.472656 58.953125 29.542969 59.160156 C 29.632812 59.363281 29.542969 59.5 29.3125 59.5 C 29.085938 59.5 29.015625 59.636719 29.085938 59.84375 C 29.175781 60.074219 29.085938 60.1875 28.832031 60.1875 C 28.628906 60.1875 28.511719 60.277344 28.582031 60.394531 C 28.785156 60.710938 28.488281 61.328125 28.125 61.328125 C 27.941406 61.328125 27.871094 61.46875 27.941406 61.671875 C 28.03125 61.902344 27.941406 62.015625 27.691406 62.015625 C 27.484375 62.015625 27.394531 62.128906 27.460938 62.242188 C 27.53125 62.382812 27.507812 62.472656 27.371094 62.472656 C 27.234375 62.472656 27.1875 62.632812 27.253906 62.816406 C 27.347656 63.042969 27.253906 63.15625 27.003906 63.15625 C 26.796875 63.15625 26.707031 63.25 26.777344 63.386719 C 26.84375 63.5 26.796875 63.613281 26.660156 63.613281 C 26.523438 63.613281 26.457031 63.707031 26.523438 63.820312 C 26.730469 64.140625 26.410156 64.757812 26.042969 64.757812 C 25.863281 64.757812 25.792969 64.847656 25.863281 64.984375 C 25.929688 65.101562 25.882812 65.214844 25.746094 65.214844 C 25.609375 65.214844 25.542969 65.304688 25.609375 65.421875 C 25.816406 65.742188 25.496094 66.359375 25.128906 66.359375 C 24.949219 66.359375 24.878906 66.472656 24.949219 66.585938 C 25.015625 66.699219 24.96875 66.816406 24.832031 66.816406 C 24.695312 66.816406 24.652344 66.90625 24.71875 67.042969 C 24.789062 67.15625 24.742188 67.273438 24.605469 67.273438 C 24.46875 67.273438 24.398438 67.363281 24.492188 67.476562 C 24.671875 67.796875 23.644531 69.785156 23.28125 69.785156 C 23.121094 69.785156 23.050781 69.875 23.121094 70.015625 C 23.1875 70.128906 23.140625 70.242188 23.003906 70.242188 C 22.867188 70.242188 22.820312 70.355469 22.890625 70.472656 C 22.960938 70.609375 22.914062 70.699219 22.777344 70.699219 C 22.640625 70.699219 22.59375 70.8125 22.664062 70.929688 C 22.730469 71.066406 22.707031 71.15625 22.570312 71.15625 C 22.433594 71.15625 22.386719 71.292969 22.457031 71.476562 C 22.59375 71.863281 21.726562 73.671875 21.382812 73.671875 C 21.246094 73.671875 21.222656 73.761719 21.292969 73.898438 C 21.359375 74.011719 21.3125 74.128906 21.175781 74.128906 C 21.039062 74.128906 20.992188 74.242188 21.0625 74.355469 C 21.132812 74.492188 21.109375 74.585938 20.992188 74.585938 C 20.855469 74.585938 20.8125 74.789062 20.878906 75.019531 C 20.949219 75.269531 20.8125 75.636719 20.535156 75.910156 C 20.285156 76.160156 20.125 76.4375 20.195312 76.503906 C 20.285156 76.574219 20.238281 76.640625 20.101562 76.640625 C 19.964844 76.640625 19.898438 76.847656 19.964844 77.097656 C 20.035156 77.371094 19.941406 77.601562 19.714844 77.691406 C 19.507812 77.761719 19.417969 77.921875 19.484375 78.035156 C 19.554688 78.148438 19.507812 78.242188 19.371094 78.242188 C 19.234375 78.242188 19.1875 78.402344 19.257812 78.585938 C 19.347656 78.765625 19.28125 78.925781 19.121094 78.925781 C 18.984375 78.925781 18.9375 79.042969 19.003906 79.15625 C 19.074219 79.292969 19.050781 79.382812 18.914062 79.382812 C 18.777344 79.382812 18.730469 79.542969 18.800781 79.726562 C 18.890625 79.910156 18.824219 80.070312 18.664062 80.070312 C 18.527344 80.070312 18.480469 80.183594 18.546875 80.296875 C 18.617188 80.433594 18.59375 80.527344 18.457031 80.527344 C 18.320312 80.527344 18.273438 80.6875 18.34375 80.871094 C 18.433594 81.050781 18.390625 81.210938 18.25 81.210938 C 18.113281 81.210938 18.070312 81.417969 18.136719 81.667969 C 18.207031 81.945312 18.113281 82.171875 17.910156 82.261719 C 17.703125 82.332031 17.613281 82.539062 17.679688 82.71875 C 17.75 82.902344 17.679688 83.039062 17.542969 83.039062 C 17.40625 83.039062 17.359375 83.199219 17.429688 83.382812 C 17.519531 83.566406 17.453125 83.726562 17.316406 83.726562 C 17.175781 83.726562 17.132812 83.886719 17.199219 84.070312 C 17.292969 84.25 17.222656 84.410156 17.0625 84.410156 C 16.925781 84.410156 16.878906 84.527344 16.949219 84.640625 C 17.132812 84.9375 16.421875 87.152344 16.148438 87.152344 C 16.035156 87.152344 15.988281 87.3125 16.058594 87.496094 C 16.148438 87.679688 16.082031 87.839844 15.945312 87.839844 C 15.804688 87.839844 15.761719 88 15.828125 88.183594 C 15.921875 88.367188 15.851562 88.523438 15.714844 88.523438 C 15.578125 88.523438 15.53125 88.683594 15.601562 88.867188 C 15.691406 89.050781 15.644531 89.210938 15.507812 89.210938 C 15.371094 89.210938 15.328125 89.417969 15.394531 89.667969 C 15.464844 89.917969 15.394531 90.125 15.257812 90.125 C 15.144531 90.125 15.074219 90.285156 15.144531 90.46875 C 15.234375 90.652344 15.1875 90.8125 15.050781 90.8125 C 14.914062 90.8125 14.871094 91.015625 14.9375 91.269531 C 15.007812 91.519531 14.9375 91.726562 14.800781 91.726562 C 14.6875 91.726562 14.617188 91.882812 14.6875 92.066406 C 14.777344 92.25 14.730469 92.410156 14.59375 92.410156 C 14.457031 92.410156 14.414062 92.617188 14.480469 92.867188 C 14.550781 93.117188 14.503906 93.324219 14.367188 93.324219 C 14.230469 93.324219 14.183594 93.53125 14.253906 93.78125 C 14.320312 94.03125 14.273438 94.238281 14.136719 94.238281 C 14 94.238281 13.957031 94.445312 14.023438 94.695312 C 14.09375 94.945312 14.046875 95.152344 13.910156 95.152344 C 13.773438 95.152344 13.726562 95.359375 13.796875 95.609375 C 13.863281 95.859375 13.816406 96.066406 13.703125 96.066406 C 13.566406 96.066406 13.519531 96.316406 13.589844 96.636719 C 13.636719 96.957031 13.589844 97.210938 13.453125 97.210938 C 13.316406 97.210938 13.269531 97.414062 13.339844 97.667969 C 13.40625 97.917969 13.359375 98.125 13.246094 98.125 C 13.109375 98.125 13.0625 98.375 13.132812 98.695312 C 13.179688 99.015625 13.132812 99.265625 13.019531 99.265625 C 12.882812 99.265625 12.835938 99.519531 12.902344 99.835938 C 12.949219 100.15625 12.902344 100.410156 12.789062 100.410156 C 12.652344 100.410156 12.605469 100.660156 12.675781 100.980469 C 12.722656 101.300781 12.675781 101.550781 12.515625 101.550781 C 12.378906 101.550781 12.332031 101.804688 12.402344 102.238281 C 12.492188 102.625 12.445312 102.921875 12.332031 102.921875 C 12.21875 102.921875 12.148438 103.21875 12.21875 103.609375 C 12.265625 103.996094 12.21875 104.292969 12.082031 104.292969 C 11.921875 104.292969 11.875 104.613281 11.96875 105.09375 C 12.035156 105.527344 11.988281 105.894531 11.875 105.894531 C 11.761719 105.894531 11.714844 106.257812 11.761719 106.695312 C 11.808594 107.152344 11.761719 107.492188 11.625 107.492188 C 11.488281 107.492188 11.441406 107.859375 11.511719 108.40625 C 11.578125 108.957031 11.554688 109.320312 11.417969 109.320312 C 11.28125 109.320312 11.210938 109.734375 11.304688 110.351562 C 11.371094 110.988281 11.328125 111.378906 11.167969 111.378906 C 11.03125 111.378906 10.984375 111.882812 11.054688 112.75 C 11.144531 113.59375 11.097656 114.121094 10.960938 114.121094 C 10.800781 114.121094 10.753906 114.875 10.847656 116.179688 C 10.894531 117.320312 10.871094 118.234375 10.753906 118.234375 C 10.640625 118.234375 10.550781 120.292969 10.550781 122.804688 C 10.550781 125.320312 10.640625 127.375 10.753906 127.375 C 10.871094 127.375 10.894531 128.289062 10.847656 129.433594 C 10.777344 130.691406 10.800781 131.558594 10.9375 131.625 C 11.074219 131.71875 11.121094 132.335938 11.074219 132.996094 C 11.007812 133.707031 11.054688 134.230469 11.191406 134.230469 C 11.304688 134.230469 11.351562 134.667969 11.304688 135.261719 C 11.210938 135.878906 11.28125 136.289062 11.417969 136.289062 C 11.554688 136.289062 11.578125 136.65625 11.511719 137.203125 C 11.441406 137.75 11.488281 138.117188 11.625 138.117188 C 11.761719 138.117188 11.808594 138.460938 11.761719 138.917969 C 11.714844 139.351562 11.761719 139.71875 11.875 139.71875 C 11.988281 139.71875 12.035156 140.082031 11.96875 140.515625 C 11.875 140.996094 11.921875 141.316406 12.082031 141.316406 C 12.21875 141.316406 12.265625 141.613281 12.21875 142.003906 C 12.148438 142.390625 12.21875 142.6875 12.332031 142.6875 C 12.445312 142.6875 12.492188 142.984375 12.425781 143.375 C 12.332031 143.808594 12.378906 144.058594 12.515625 144.058594 C 12.675781 144.058594 12.722656 144.308594 12.675781 144.628906 C 12.605469 144.949219 12.652344 145.203125 12.789062 145.203125 C 12.902344 145.203125 12.949219 145.453125 12.902344 145.773438 C 12.835938 146.09375 12.882812 146.34375 13.019531 146.34375 C 13.132812 146.34375 13.179688 146.597656 13.132812 146.914062 C 13.0625 147.234375 13.109375 147.488281 13.246094 147.488281 C 13.359375 147.488281 13.40625 147.691406 13.339844 147.945312 C 13.269531 148.195312 13.316406 148.402344 13.453125 148.402344 C 13.589844 148.402344 13.636719 148.652344 13.589844 148.972656 C 13.519531 149.292969 13.566406 149.542969 13.703125 149.542969 C 13.816406 149.542969 13.863281 149.75 13.796875 150 C 13.726562 150.253906 13.773438 150.457031 13.910156 150.457031 C 14.046875 150.457031 14.09375 150.664062 14.023438 150.914062 C 13.957031 151.167969 14 151.371094 14.136719 151.371094 C 14.273438 151.371094 14.320312 151.578125 14.253906 151.828125 C 14.183594 152.082031 14.230469 152.285156 14.367188 152.285156 C 14.503906 152.285156 14.550781 152.492188 14.480469 152.742188 C 14.414062 152.996094 14.457031 153.199219 14.59375 153.199219 C 14.730469 153.199219 14.777344 153.359375 14.6875 153.542969 C 14.617188 153.726562 14.6875 153.886719 14.800781 153.886719 C 14.9375 153.886719 15.007812 154.089844 14.9375 154.34375 C 14.871094 154.59375 14.914062 154.800781 15.050781 154.800781 C 15.1875 154.800781 15.234375 154.960938 15.144531 155.144531 C 15.074219 155.324219 15.144531 155.484375 15.257812 155.484375 C 15.394531 155.484375 15.464844 155.691406 15.394531 155.941406 C 15.328125 156.195312 15.371094 156.398438 15.507812 156.398438 C 15.644531 156.398438 15.691406 156.558594 15.601562 156.742188 C 15.53125 156.925781 15.578125 157.085938 15.714844 157.085938 C 15.851562 157.085938 15.921875 157.246094 15.828125 157.429688 C 15.761719 157.609375 15.804688 157.769531 15.945312 157.769531 C 16.082031 157.769531 16.148438 157.929688 16.058594 158.113281 C 15.988281 158.296875 16.011719 158.457031 16.101562 158.457031 C 16.285156 158.457031 16.972656 160.71875 16.878906 161.039062 C 16.859375 161.128906 16.949219 161.199219 17.085938 161.199219 C 17.222656 161.199219 17.292969 161.359375 17.199219 161.542969 C 17.132812 161.726562 17.175781 161.882812 17.316406 161.882812 C 17.453125 161.882812 17.519531 162.042969 17.429688 162.226562 C 17.359375 162.410156 17.40625 162.570312 17.542969 162.570312 C 17.679688 162.570312 17.75 162.707031 17.679688 162.890625 C 17.613281 163.074219 17.65625 163.257812 17.773438 163.300781 C 17.886719 163.347656 18.023438 163.597656 18.046875 163.894531 C 18.046875 164.171875 18.160156 164.398438 18.273438 164.398438 C 18.390625 164.398438 18.433594 164.535156 18.367188 164.71875 C 18.296875 164.902344 18.320312 165.085938 18.433594 165.128906 C 18.527344 165.175781 18.664062 165.402344 18.707031 165.65625 C 18.730469 165.90625 18.847656 166.160156 18.9375 166.226562 C 19.003906 166.296875 19.121094 166.546875 19.164062 166.796875 C 19.1875 167.050781 19.371094 167.390625 19.53125 167.550781 C 19.78125 167.828125 19.898438 168.328125 19.828125 168.808594 C 19.828125 168.902344 19.898438 168.96875 20.011719 168.96875 C 20.238281 168.96875 20.855469 170.546875 20.765625 170.867188 C 20.742188 170.957031 20.835938 171.027344 20.972656 171.027344 C 21.085938 171.027344 21.132812 171.140625 21.0625 171.253906 C 20.992188 171.390625 21.015625 171.484375 21.132812 171.484375 C 21.335938 171.484375 22.457031 173.996094 22.363281 174.292969 C 22.34375 174.386719 22.433594 174.453125 22.570312 174.453125 C 22.683594 174.453125 22.730469 174.566406 22.664062 174.683594 C 22.59375 174.820312 22.640625 174.910156 22.777344 174.910156 C 22.914062 174.910156 22.960938 175.027344 22.890625 175.140625 C 22.820312 175.277344 22.867188 175.367188 23.003906 175.367188 C 23.140625 175.367188 23.1875 175.484375 23.121094 175.597656 C 23.050781 175.734375 23.074219 175.824219 23.1875 175.824219 C 23.300781 175.824219 23.621094 176.375 23.941406 177.035156 C 24.238281 177.675781 24.628906 178.363281 24.789062 178.523438 C 24.949219 178.703125 25.015625 178.933594 24.949219 179.046875 C 24.855469 179.160156 24.902344 179.253906 25.039062 179.253906 C 25.175781 179.253906 25.335938 179.503906 25.425781 179.824219 C 25.496094 180.144531 25.65625 180.394531 25.792969 180.394531 C 25.90625 180.394531 25.929688 180.511719 25.863281 180.625 C 25.792969 180.761719 25.816406 180.851562 25.953125 180.851562 C 26.089844 180.851562 26.25 181.105469 26.339844 181.425781 C 26.410156 181.746094 26.59375 181.996094 26.730469 181.996094 C 26.867188 181.996094 26.914062 182.0625 26.820312 182.132812 C 26.753906 182.203125 26.890625 182.476562 27.117188 182.75 C 27.371094 183 27.507812 183.296875 27.4375 183.414062 C 27.371094 183.503906 27.4375 183.59375 27.554688 183.59375 C 27.691406 183.59375 27.804688 183.753906 27.804688 183.9375 C 27.804688 184.121094 27.894531 184.28125 28.03125 184.28125 C 28.148438 184.28125 28.308594 184.53125 28.398438 184.851562 C 28.46875 185.171875 28.628906 185.421875 28.742188 185.421875 C 28.855469 185.421875 28.945312 185.582031 28.945312 185.765625 C 28.945312 185.949219 29.0625 186.109375 29.175781 186.109375 C 29.3125 186.109375 29.402344 186.269531 29.402344 186.453125 C 29.402344 186.636719 29.519531 186.792969 29.632812 186.792969 C 29.769531 186.792969 29.859375 186.953125 29.859375 187.136719 C 29.859375 187.320312 29.976562 187.480469 30.089844 187.480469 C 30.226562 187.480469 30.316406 187.640625 30.316406 187.824219 C 30.316406 188.007812 30.433594 188.167969 30.546875 188.167969 C 30.683594 188.167969 30.773438 188.324219 30.773438 188.507812 C 30.773438 188.691406 30.890625 188.851562 31.003906 188.851562 C 31.140625 188.851562 31.230469 189.011719 31.230469 189.195312 C 31.230469 189.378906 31.347656 189.539062 31.460938 189.539062 C 31.597656 189.539062 31.6875 189.652344 31.6875 189.765625 C 31.6875 189.996094 31.871094 190.269531 32.558594 191.023438 C 32.695312 191.183594 32.832031 191.386719 32.832031 191.480469 C 32.832031 191.570312 32.96875 191.753906 33.105469 191.914062 C 33.265625 192.097656 33.5625 192.460938 33.746094 192.738281 C 33.929688 193.011719 34.25 193.421875 34.433594 193.671875 C 35.070312 194.496094 35.6875 195.273438 36.03125 195.707031 C 36.214844 195.9375 36.625 196.460938 36.945312 196.875 C 37.515625 197.605469 38.089844 198.265625 39.800781 200.253906 C 40.304688 200.828125 42.203125 202.839844 44.03125 204.6875 C 61.191406 222.308594 84.046875 234.308594 108.132812 238.304688 C 116.886719 239.769531 124.769531 240.25 133.160156 239.816406 Z M 133.160156 239.816406 "/>
<path style=" stroke:none;fill-rule:nonzero;fill:rgb(90.196079%,90.196079%,90.196079%);fill-opacity:1;" d="M 244.75 122.960938 C 244.75 187.457031 192.140625 239.742188 127.242188 239.742188 C 62.347656 239.742188 9.738281 187.457031 9.738281 122.960938 C 9.738281 58.460938 62.347656 6.179688 127.242188 6.179688 C 192.140625 6.179688 244.75 58.460938 244.75 122.960938 Z M 244.75 122.960938 "/>
<use xlink:href="#surface11" mask="url(#mask0)"/>
<path style=" stroke:none;fill-rule:nonzero;fill:rgb(10.196079%,12.54902%,10.588235%);fill-opacity:1;" d="M 245.917969 105.941406 C 245.597656 105.664062 245.347656 104.957031 245.070312 103.609375 C 244.589844 101.207031 244.589844 101.324219 245.140625 101.324219 C 245.390625 101.324219 245.597656 101.4375 245.597656 101.550781 C 245.597656 101.6875 246.007812 101.78125 246.535156 101.78125 C 247.515625 101.78125 248.292969 102.101562 248.726562 102.671875 C 249.023438 103.058594 249.140625 105.367188 248.886719 105.984375 C 248.683594 106.511719 246.558594 106.464844 245.917969 105.941406 Z M 245.917969 105.941406 "/>
<path style=" stroke:none;fill-rule:nonzero;fill:rgb(5.882353%,9.411765%,2.745098%);fill-opacity:1;" d="M 254.738281 126.644531 C 254.464844 125.089844 254.578125 119.605469 254.875 119.101562 C 254.945312 119.011719 255.242188 118.921875 255.515625 118.921875 C 256.246094 118.921875 256.339844 119.515625 256.339844 124.3125 L 256.339844 128.289062 L 255.675781 128.289062 C 255.035156 128.289062 254.988281 128.246094 254.738281 126.644531 Z M 254.738281 126.644531 "/>
<path style=" stroke:none;fill-rule:nonzero;fill:rgb(5.882353%,9.411765%,2.745098%);fill-opacity:1;" d="M 253.597656 116.222656 C 253.597656 115.675781 253.753906 115.171875 254.054688 114.851562 C 254.304688 114.578125 254.511719 114.097656 254.511719 113.777344 C 254.511719 113.320312 254.625 113.207031 255.058594 113.207031 C 255.652344 113.207031 255.789062 113.664062 255.925781 115.949219 L 255.996094 116.976562 L 254.785156 117.046875 L 253.597656 117.113281 Z M 253.597656 116.222656 "/>
<path style=" stroke:none;fill-rule:nonzero;fill:rgb(5.882353%,9.411765%,2.745098%);fill-opacity:1;" d="M 245.621094 106.578125 C 245.253906 104.867188 245.277344 104.683594 245.894531 104.886719 C 246.167969 104.957031 246.558594 105.183594 246.761719 105.34375 C 246.945312 105.527344 247.332031 105.664062 247.609375 105.664062 C 248.019531 105.664062 248.109375 105.800781 248.109375 106.351562 C 248.109375 106.921875 248.019531 107.035156 247.3125 107.171875 C 246.875 107.242188 246.511719 107.402344 246.511719 107.515625 C 246.511719 107.628906 246.375 107.722656 246.191406 107.722656 C 245.984375 107.722656 245.78125 107.289062 245.621094 106.578125 Z M 245.621094 106.578125 "/>
<path style=" stroke:none;fill-rule:nonzero;fill:rgb(5.882353%,9.411765%,2.745098%);fill-opacity:1;" d="M 244.386719 100.453125 C 243.5625 96.890625 243.5625 96.179688 244.453125 95.722656 C 244.84375 95.519531 245.140625 95.289062 245.140625 95.175781 C 245.140625 94.992188 243.3125 93.667969 242.832031 93.507812 C 242.71875 93.460938 242.421875 92.800781 242.191406 92.042969 L 241.78125 90.652344 L 242.878906 90.355469 C 243.496094 90.171875 243.996094 89.917969 243.996094 89.757812 C 243.996094 89.597656 244.179688 89.417969 244.410156 89.347656 C 244.796875 89.210938 244.820312 88.980469 244.730469 86.789062 C 244.636719 84.867188 244.683594 84.320312 244.933594 84.160156 C 245.117188 84.046875 245.941406 83.953125 246.785156 83.953125 L 248.339844 83.953125 L 248.75 84.800781 C 249.164062 85.644531 249.640625 87.132812 250.167969 89.164062 C 250.304688 89.691406 250.511719 90.125 250.625 90.125 C 250.761719 90.125 250.851562 90.535156 250.851562 91.0625 C 250.851562 92.523438 251.515625 95.105469 251.996094 95.449219 C 252.476562 95.769531 253.230469 98.421875 253.023438 98.992188 C 252.957031 99.199219 252.363281 99.722656 251.699219 100.15625 C 250.648438 100.84375 250.328125 100.933594 248.980469 100.957031 C 247.90625 100.980469 247.425781 101.070312 247.425781 101.277344 C 247.425781 101.414062 247.539062 101.550781 247.652344 101.550781 C 247.792969 101.550781 247.882812 101.871094 247.882812 102.261719 C 247.882812 102.855469 247.8125 102.945312 247.492188 102.808594 C 246.625 102.441406 246.078125 102.441406 245.550781 102.785156 L 245.027344 103.128906 Z M 247.402344 91.542969 C 247.195312 90.078125 246.785156 88.777344 246.761719 89.53125 C 246.738281 90.285156 247.242188 92.867188 247.402344 92.867188 C 247.492188 92.867188 247.492188 92.273438 247.402344 91.542969 Z M 247.402344 91.542969 "/>
<path style=" stroke:none;fill-rule:nonzero;fill:rgb(3.529412%,6.27451%,1.176471%);fill-opacity:1;" d="M 252.589844 133.042969 C 252.339844 132.519531 252.085938 131.351562 252.019531 130.460938 C 251.925781 129.320312 251.722656 128.65625 251.355469 128.128906 C 251.082031 127.742188 250.851562 127.238281 250.851562 127.035156 C 250.851562 126.597656 250.351562 126.117188 249.550781 125.777344 C 249.253906 125.660156 249.023438 125.410156 249.023438 125.203125 C 249.023438 125.023438 248.933594 124.863281 248.796875 124.863281 C 248.683594 124.863281 248.566406 124.65625 248.566406 124.40625 C 248.566406 124.152344 248.40625 123.878906 248.226562 123.8125 C 248.042969 123.71875 247.882812 123.46875 247.882812 123.238281 C 247.882812 123.011719 247.792969 122.804688 247.675781 122.804688 C 247.449219 122.804688 247.332031 121.984375 246.96875 117.207031 C 246.832031 115.445312 246.464844 112.222656 246.167969 110.03125 C 245.710938 106.832031 245.664062 105.984375 245.894531 105.710938 C 246.121094 105.414062 246.101562 105.367188 245.710938 105.503906 C 245.253906 105.664062 245.253906 105.664062 245.6875 105.324219 C 246.214844 104.933594 246.441406 104.886719 246.601562 105.183594 C 246.671875 105.300781 246.578125 105.4375 246.398438 105.527344 C 246.214844 105.597656 246.054688 105.78125 246.054688 105.917969 C 246.054688 106.097656 246.144531 106.097656 246.398438 105.894531 C 246.671875 105.664062 246.71875 105.710938 246.625 106.097656 C 246.578125 106.375 246.625 106.535156 246.761719 106.464844 C 246.875 106.375 246.96875 106.144531 246.992188 105.941406 C 246.992188 105.621094 247.035156 105.640625 247.195312 106.007812 C 247.355469 106.398438 247.402344 106.398438 247.402344 106.078125 C 247.425781 105.847656 247.5625 105.664062 247.746094 105.664062 C 248.132812 105.664062 248.339844 105.164062 248.339844 104.339844 C 248.316406 103.652344 247.996094 103.128906 247.332031 102.761719 C 247.105469 102.625 246.785156 102.144531 246.625 101.710938 C 246.464844 101.253906 246.417969 100.933594 246.535156 101.003906 C 246.875 101.207031 246.761719 100.707031 246.398438 100.410156 C 246.214844 100.25 246.054688 100.019531 246.054688 99.90625 C 246.054688 99.519531 245.046875 98.351562 244.730469 98.351562 C 244.453125 98.351562 244.453125 98.445312 244.773438 98.785156 C 245.003906 99.039062 245.140625 99.378906 245.070312 99.539062 C 244.980469 99.746094 244.933594 99.722656 244.933594 99.449219 C 244.910156 99.21875 244.773438 99.105469 244.5 99.199219 C 244.15625 99.289062 244.019531 99.015625 243.675781 97.507812 C 243.449219 96.523438 243.199219 95.609375 243.152344 95.449219 C 243.082031 95.3125 243.289062 95.152344 243.585938 95.105469 C 244.113281 95.015625 244.113281 95.015625 243.472656 94.695312 C 243.082031 94.511719 242.785156 94.125 242.671875 93.691406 C 242.488281 93.050781 242.535156 92.980469 242.992188 92.914062 C 243.289062 92.867188 243.699219 92.9375 243.929688 93.074219 C 244.203125 93.210938 244.5 93.210938 244.796875 93.027344 C 245.207031 92.820312 245.207031 92.820312 244.957031 93.140625 C 244.707031 93.460938 244.773438 93.574219 245.414062 94.03125 C 245.824219 94.308594 246.214844 94.582031 246.261719 94.605469 C 246.511719 94.808594 245.664062 96.136719 245.117188 96.433594 C 244.292969 96.84375 244.292969 97.09375 245.09375 97.597656 C 245.4375 97.804688 245.941406 98.191406 246.238281 98.445312 C 246.535156 98.71875 247.195312 99.015625 247.699219 99.152344 C 248.796875 99.425781 249.207031 99.996094 248.179688 99.816406 C 247.835938 99.769531 247.378906 99.65625 247.195312 99.585938 C 246.945312 99.496094 246.921875 99.539062 247.105469 99.722656 C 247.472656 100.089844 249.023438 100.433594 249.023438 100.136719 C 249.023438 100.019531 249.230469 99.976562 249.460938 100.066406 C 249.894531 100.203125 251.90625 99.039062 252.292969 98.421875 C 252.957031 97.371094 253.4375 99.015625 254.738281 106.695312 C 255.652344 112.132812 255.789062 113.664062 255.402344 113.914062 C 255.148438 114.074219 255.171875 114.121094 255.492188 114.121094 C 255.699219 114.121094 255.882812 114.234375 255.882812 114.351562 C 255.882812 114.488281 255.722656 114.578125 255.539062 114.578125 C 255.355469 114.578125 255.195312 114.691406 255.195312 114.808594 C 255.195312 114.945312 254.988281 115.265625 254.738281 115.539062 C 254.074219 116.246094 254.167969 116.476562 255.058594 116.316406 C 255.996094 116.132812 256.109375 116.359375 256.109375 118.234375 C 256.109375 119.148438 256.019531 119.582031 255.789062 119.675781 C 254.96875 119.996094 255.195312 127.605469 256.019531 127.605469 C 256.269531 127.605469 256.339844 128.175781 256.339844 130.4375 C 256.339844 131.992188 256.269531 133.433594 256.199219 133.636719 C 256.085938 133.914062 255.722656 134.003906 254.53125 134.003906 L 253.023438 133.980469 Z M 250.328125 105.503906 C 250.28125 105.140625 250.238281 105.390625 250.238281 106.007812 C 250.238281 106.648438 250.28125 106.921875 250.328125 106.648438 C 250.375 106.351562 250.375 105.847656 250.328125 105.503906 Z M 250.238281 102.761719 L 250.304688 101.324219 L 248.796875 101.324219 L 249.367188 102.464844 C 249.6875 103.082031 249.960938 103.882812 249.960938 104.226562 C 250.007812 105.140625 250.121094 104.429688 250.238281 102.761719 Z M 250.238281 102.761719 "/>
<path style=" stroke:none;fill-rule:nonzero;fill:rgb(3.529412%,6.27451%,1.176471%);fill-opacity:1;" d="M 251.492188 96.226562 C 250.808594 95.679688 250.167969 93.554688 250.167969 91.792969 C 250.167969 91.246094 250.078125 90.8125 249.9375 90.8125 C 249.824219 90.8125 249.621094 90.375 249.480469 89.851562 C 248.546875 86.171875 247.859375 84.640625 247.175781 84.640625 C 246.785156 84.640625 246.738281 84.753906 246.832031 85.507812 C 246.875 85.964844 247.195312 87.292969 247.515625 88.410156 C 247.835938 89.554688 248.15625 90.925781 248.226562 91.472656 C 248.292969 92 248.386719 92.546875 248.453125 92.640625 C 248.75 93.117188 248.25 93.554688 247.425781 93.554688 L 246.558594 93.554688 L 246.328125 92.023438 C 246.191406 91.152344 245.941406 89.1875 245.757812 87.609375 C 245.527344 85.578125 245.414062 85.121094 245.390625 86.011719 C 245.390625 86.695312 245.484375 87.679688 245.597656 88.183594 C 245.871094 89.300781 245.710938 89.828125 245.09375 90.035156 C 244.636719 90.171875 244.636719 90.195312 245.277344 90.46875 L 245.941406 90.765625 L 245.027344 90.789062 C 244.523438 90.8125 243.65625 90.96875 243.105469 91.175781 C 242.558594 91.359375 242.078125 91.472656 242.054688 91.449219 C 241.847656 91.175781 241.324219 89.210938 241.4375 89.121094 C 241.527344 89.074219 242.238281 88.960938 242.992188 88.867188 L 244.386719 88.707031 L 244.363281 86.628906 C 244.339844 84.730469 244.386719 84.480469 244.867188 84 C 245.253906 83.613281 245.621094 83.496094 246.601562 83.496094 C 248.429688 83.496094 248.863281 83.953125 249.734375 86.765625 C 250.121094 88.046875 250.535156 89.300781 250.625 89.554688 C 251.011719 90.492188 251.378906 91.863281 251.449219 92.617188 C 251.46875 93.050781 251.609375 93.460938 251.722656 93.53125 C 251.835938 93.597656 252.042969 94.191406 252.203125 94.808594 C 252.339844 95.449219 252.523438 96.136719 252.589844 96.363281 C 252.75 96.914062 252.246094 96.867188 251.492188 96.226562 Z M 251.492188 96.226562 "/>
<path style=" stroke:none;fill-rule:nonzero;fill:rgb(2.352941%,3.529412%,0.392157%);fill-opacity:1;" d="M 252.683594 134.324219 C 252.222656 134.230469 252.042969 134.003906 251.835938 133.25 C 250.785156 129.136719 250.394531 128.359375 248.726562 126.894531 L 247.539062 125.84375 L 247.3125 121.9375 C 247.195312 119.8125 247.152344 118.097656 247.21875 118.144531 C 247.3125 118.1875 247.425781 118.027344 247.492188 117.777344 C 247.5625 117.527344 247.769531 117.320312 247.972656 117.320312 C 248.5 117.320312 248.429688 118.144531 247.859375 118.53125 C 247.5625 118.738281 247.492188 118.921875 247.632812 119.035156 C 247.769531 119.101562 247.882812 119.058594 247.882812 118.941406 C 247.882812 118.804688 247.996094 118.691406 248.109375 118.691406 C 248.269531 118.691406 248.269531 118.828125 248.109375 119.125 C 247.996094 119.378906 247.882812 119.925781 247.90625 120.335938 C 247.929688 121.023438 247.949219 121.046875 248.089844 120.519531 C 248.226562 120.039062 248.292969 120.15625 248.453125 121.207031 C 248.566406 121.890625 248.636719 122.601562 248.636719 122.738281 C 248.636719 122.898438 248.707031 122.964844 248.820312 122.898438 C 248.933594 122.828125 249.09375 123.078125 249.164062 123.46875 C 249.253906 123.855469 249.460938 124.175781 249.621094 124.175781 C 249.800781 124.175781 249.871094 124.3125 249.800781 124.519531 C 249.710938 124.726562 249.871094 124.929688 250.191406 125.089844 C 251.035156 125.433594 251.539062 125.914062 251.539062 126.347656 C 251.539062 126.554688 251.765625 127.054688 252.042969 127.445312 C 252.40625 127.96875 252.613281 128.632812 252.703125 129.777344 C 252.773438 130.667969 253.023438 131.832031 253.277344 132.382812 L 253.710938 133.339844 L 255.035156 133.226562 C 256.339844 133.089844 256.359375 133.113281 256.199219 133.613281 C 256.132812 133.890625 256.042969 134.140625 255.996094 134.164062 C 255.902344 134.300781 253.207031 134.414062 252.683594 134.324219 Z M 252.683594 134.324219 "/>
<path style=" stroke:none;fill-rule:nonzero;fill:rgb(2.352941%,3.529412%,0.392157%);fill-opacity:1;" d="M 248.636719 117.617188 C 248.5 117.320312 248.429688 116.886719 248.5 116.636719 C 248.589844 116.269531 248.75 116.199219 249.230469 116.316406 C 250.417969 116.613281 251.289062 117.296875 251.308594 117.960938 C 251.308594 118.167969 250.945312 118.234375 250.097656 118.1875 C 249.070312 118.144531 248.84375 118.050781 248.636719 117.617188 Z M 250.167969 117.457031 C 250.167969 117.296875 249.917969 117.09375 249.597656 117.046875 C 248.933594 116.910156 248.84375 117.183594 249.4375 117.527344 C 249.984375 117.847656 250.167969 117.824219 250.167969 117.457031 Z M 250.167969 117.457031 "/>
<path style=" stroke:none;fill-rule:nonzero;fill:rgb(2.352941%,3.529412%,0.392157%);fill-opacity:1;" d="M 249.734375 109.710938 C 249.621094 109.4375 249.480469 108.085938 249.390625 106.738281 C 249.253906 104.226562 248.980469 103.355469 247.675781 101.4375 C 247.015625 100.453125 247.058594 100.363281 248.25 100.546875 C 249.003906 100.660156 249.757812 100.570312 251.082031 100.179688 C 253.023438 99.632812 253.597656 99.679688 253.597656 100.410156 C 253.597656 100.75 253.4375 100.867188 253.023438 100.867188 C 252.109375 100.867188 251.082031 101.484375 251.058594 102.078125 C 250.945312 104.109375 250.992188 107.949219 251.152344 107.949219 C 251.378906 107.949219 251.355469 108.683594 251.058594 109.527344 C 250.761719 110.375 250.03125 110.488281 249.734375 109.710938 Z M 249.734375 109.710938 "/>
<path style=" stroke:none;fill-rule:nonzero;fill:rgb(2.352941%,3.529412%,0.392157%);fill-opacity:1;" d="M 243.242188 95.679688 C 243.015625 94.832031 242.855469 94.03125 242.902344 93.894531 C 242.992188 93.574219 243.792969 93.734375 244.5 94.261719 C 244.84375 94.488281 245.230469 94.695312 245.367188 94.695312 C 245.960938 94.695312 245.527344 95.632812 244.707031 96.160156 C 244.226562 96.476562 243.769531 96.84375 243.722656 96.980469 C 243.675781 97.140625 243.449219 96.546875 243.242188 95.679688 Z M 243.242188 95.679688 "/>
<path style=" stroke:none;fill-rule:nonzero;fill:rgb(2.352941%,3.529412%,0.392157%);fill-opacity:1;" d="M 251.152344 94.285156 C 250.761719 94.03125 250.328125 92.160156 250.601562 91.882812 C 250.96875 91.519531 251.46875 91.863281 251.609375 92.570312 C 251.699219 92.914062 251.8125 93.4375 251.90625 93.691406 C 252.042969 94.191406 251.585938 94.558594 251.152344 94.285156 Z M 251.152344 94.285156 "/>
<path style=" stroke:none;fill-rule:nonzero;fill:rgb(2.352941%,3.529412%,0.392157%);fill-opacity:1;" d="M 250.007812 90.285156 C 249.894531 90.125 249.550781 89.140625 249.253906 88.066406 C 248.429688 85.074219 247.8125 84.183594 246.578125 84.183594 C 246.121094 84.183594 245.164062 84.867188 245.140625 85.210938 C 245.140625 85.28125 245.070312 85.464844 245.003906 85.644531 C 244.933594 85.828125 244.980469 86.558594 245.117188 87.292969 C 245.527344 89.4375 245.574219 89.371094 243.835938 89.554688 C 242.96875 89.644531 242.125 89.804688 241.917969 89.917969 C 241.621094 90.054688 241.507812 89.988281 241.390625 89.597656 C 241.324219 89.324219 241.253906 89.027344 241.253906 88.9375 C 241.253906 88.867188 241.894531 88.730469 242.695312 88.640625 L 244.15625 88.480469 L 244.132812 86.421875 C 244.113281 84.457031 244.132812 84.34375 244.75 83.816406 C 245.664062 83.039062 247.652344 83.019531 248.429688 83.792969 C 248.84375 84.207031 250.851562 89.484375 250.851562 90.148438 C 250.851562 90.445312 250.191406 90.535156 250.007812 90.285156 Z M 250.007812 90.285156 "/>
<path style=" stroke:none;fill-rule:nonzero;fill:rgb(1.960784%,1.176471%,0.392157%);fill-opacity:1;" d="M 148.8125 248.5 C 169.542969 244.066406 187.390625 235.425781 203.546875 221.988281 C 207.226562 218.925781 215.339844 210.8125 218.402344 207.132812 C 228.6875 194.746094 236.066406 181.5625 241.027344 166.683594 C 245.207031 154.160156 247.355469 141.179688 247.449219 128.085938 C 247.449219 126.027344 247.539062 124.429688 247.609375 124.542969 C 247.699219 124.65625 248.5 125.410156 249.414062 126.210938 C 250.328125 127.011719 251.035156 127.71875 251.035156 127.808594 C 251.011719 127.878906 251.105469 128.175781 251.265625 128.449219 C 251.515625 128.90625 251.925781 130.253906 252.542969 132.585938 C 252.75 133.386719 252.886719 133.546875 253.367188 133.59375 C 254.167969 133.636719 254.394531 133.613281 255.355469 133.433594 L 256.179688 133.296875 L 256.042969 135.921875 C 255.699219 141.84375 254.488281 149.269531 252.683594 156.515625 C 248.132812 174.867188 239.792969 191.226562 227.3125 206.21875 C 224.253906 209.898438 216.367188 217.785156 212.6875 220.847656 C 194.40625 236.042969 173.722656 245.300781 150.414062 248.703125 C 145.980469 249.367188 145.269531 249.277344 148.8125 248.5 Z M 148.8125 248.5 "/>
<path style=" stroke:none;fill-rule:nonzero;fill:rgb(1.960784%,1.176471%,0.392157%);fill-opacity:1;" d="M 249.320312 103.195312 C 249.164062 103.105469 248.726562 102.558594 248.363281 102.007812 L 247.675781 100.980469 L 248.453125 100.910156 C 248.886719 100.867188 249.597656 100.867188 250.03125 100.910156 L 250.808594 100.980469 L 250.351562 102.191406 C 249.894531 103.402344 249.800781 103.496094 249.320312 103.195312 Z M 249.320312 103.195312 "/>
<path style=" stroke:none;fill-rule:nonzero;fill:rgb(1.960784%,1.176471%,0.392157%);fill-opacity:1;" d="M 252.429688 100.066406 C 252.839844 99.882812 253.296875 99.792969 253.4375 99.882812 C 253.734375 100.066406 253 100.363281 252.222656 100.386719 C 251.699219 100.386719 251.722656 100.363281 252.429688 100.066406 Z M 252.429688 100.066406 "/>
<path style=" stroke:none;fill-rule:nonzero;fill:rgb(1.960784%,1.176471%,0.392157%);fill-opacity:1;" d="M 250.054688 90.078125 C 249.960938 89.78125 249.414062 87.816406 249.367188 87.609375 C 249.367188 87.542969 249.164062 86.949219 248.910156 86.261719 C 248.179688 84.273438 246.832031 83.476562 245.644531 84.320312 C 244.796875 84.914062 244.613281 85.667969 244.910156 87.453125 C 245.070312 88.296875 245.140625 89.050781 245.117188 89.097656 C 245.003906 89.1875 243.152344 89.417969 242.351562 89.417969 C 241.894531 89.4375 241.710938 89.554688 241.6875 89.851562 C 241.6875 90.054688 241.140625 88.707031 240.476562 86.8125 C 238.101562 80.046875 234.445312 72.046875 230.972656 66.015625 C 229.714844 63.820312 225.667969 57.46875 225.027344 56.691406 C 224.914062 56.554688 224.160156 55.546875 223.382812 54.472656 C 222.582031 53.398438 221.875 52.441406 221.785156 52.300781 C 221.167969 51.457031 217.488281 47.023438 216.253906 45.628906 C 214.835938 43.984375 207.273438 36.488281 205.488281 34.910156 C 202.472656 32.261719 197.628906 28.445312 195.664062 27.1875 C 195.296875 26.933594 194.886719 26.660156 194.75 26.546875 C 194.632812 26.433594 193.078125 25.382812 191.296875 24.238281 C 189.539062 23.074219 187.890625 22 187.640625 21.839844 C 187.414062 21.703125 187.070312 21.496094 186.910156 21.429688 C 186.726562 21.335938 185.195312 20.492188 183.480469 19.53125 C 177.058594 15.921875 170.523438 13.0625 163.097656 10.59375 C 150.574219 6.414062 137.707031 4.289062 124.40625 4.152344 C 118.417969 4.105469 121.914062 3.785156 130.554688 3.601562 C 142.644531 3.328125 151.488281 4.3125 162.980469 7.167969 C 181.332031 11.714844 197.695312 20.054688 212.6875 32.535156 C 216.367188 35.597656 224.253906 43.480469 227.3125 47.160156 C 237.414062 59.296875 244.867188 72.480469 249.800781 86.902344 C 250.375 88.570312 250.851562 90.035156 250.851562 90.148438 C 250.851562 90.46875 250.167969 90.398438 250.054688 90.078125 Z M 250.054688 90.078125 "/>
</g>
</svg>
