<?xml version="1.0" encoding="UTF-8" standalone="no"?>
<svg
   width="256"
   height="256"
   viewBox="0 0 252.06154 252.06153"
   version="1.1"
   preserveAspectRatio="xMidYMid"
   id="voidlogo"
   sodipodi:docname="evolution-logo.svg"
   inkscape:version="1.2.2 (b0a8486541, 2022-12-01)"
   xmlns:inkscape="http://www.inkscape.org/namespaces/inkscape"
   xmlns:sodipodi="http://sodipodi.sourceforge.net/DTD/sodipodi-0.dtd"
   xmlns="http://www.w3.org/2000/svg"
   xmlns:svg="http://www.w3.org/2000/svg">
  <sodipodi:namedview
     id="namedview580"
     pagecolor="#ffffff"
     bordercolor="#000000"
     borderopacity="0.25"
     inkscape:showpageshadow="2"
     inkscape:pageopacity="0.0"
     inkscape:pagecheckerboard="0"
     inkscape:deskcolor="#d1d1d1"
     showgrid="false"
     inkscape:zoom="2.2383624"
     inkscape:cx="100.29654"
     inkscape:cy="88.457526"
     inkscape:window-width="1432"
     inkscape:window-height="831"
     inkscape:window-x="0"
     inkscape:window-y="0"
     inkscape:window-maximized="1"
     inkscape:current-layer="voidlogo" />
  <defs
     id="defs566" />
  <ellipse
     style="fill:#000000;stroke-width:1.13834"
     id="path731"
     cx="128.94815"
     cy="125.05624"
     rx="122.81901"
     ry="121.29315" />
  <ellipse
     style="fill:#b7b7b7;fill-opacity:1;stroke:#aff1ab;stroke-width:1.40705;stroke-opacity:0.333333"
     id="path7271"
     cx="122.27775"
     cy="126.34064"
     rx="120.00629"
     ry="121.93163" />
  <ellipse
     style="fill:#f7f8f7;fill-opacity:1;stroke:#aff1ab;stroke-width:1.56837;stroke-opacity:0.333333"
     id="path7394"
     cx="126.09322"
     cy="120.31116"
     rx="115.7648"
     ry="115.47614" />
  <g
     id="l3ZNuxIzQdLGBSP0xvKtC5W"
     fill="#97f64c"
     transform="matrix(0.0225018,0,0,0.0225018,-80.407079,3.2316576)"
     style="display:inline">
    <g
       id="g280">
      <path
         id="pfPZJ2gEz"
         d="m 11160,8930 c 0,-36 -4,-31 300,-357 438,-468 794,-855 817,-886 55,-74 58,-107 56,-537 -2,-217 -8,-1304 -14,-2415 -6,-1142 -14,-2044 -20,-2075 -17,-101 -40,-124 -414,-410 -125,-96 -307,-236 -404,-310 -97,-75 -233,-179 -302,-233 -139,-106 -200,-141 -276,-157 -34,-7 -594,-10 -1801,-8 -964,2 -1752,1 -1751,-2 0,-5 76,-67 131,-108 17,-12 48,-27 68,-32 25,-7 645,-9 1821,-8 l 1784,3 54,28 c 51,27 294,209 726,543 110,85 263,202 340,260 170,130 201,158 228,209 21,40 22,49 29,810 20,2145 28,4185 17,4237 -19,87 -42,120 -208,295 -87,93 -211,227 -276,298 -65,72 -184,200 -264,285 -80,86 -220,236 -311,333 -160,173 -228,231 -280,244 -14,3 -31,10 -37,16 -10,7 -13,2 -13,-23 z" />
      <path
         id="p1Gyv7lMth"
         d="m 7025,8499 c -110,-66 -323,-195 -472,-286 l -273,-165 1,-426 c 0,-399 26,-4625 28,-4629 1,-1 36,-30 79,-64 42,-35 122,-102 177,-149 55,-48 145,-125 201,-171 190,-159 528,-444 623,-526 94,-80 97,-82 149,-83 35,0 52,4 52,13 0,6 -30,35 -67,62 -66,49 -101,78 -359,300 -70,61 -149,126 -174,145 -45,34 -119,98 -239,206 -31,28 -93,78 -137,112 l -82,61 -6,633 c -17,1766 -27,4350 -15,4364 6,7 39,30 72,49 34,20 101,60 148,88 48,29 109,65 135,81 58,34 99,60 174,108 64,42 98,62 200,119 41,23 89,52 105,65 17,12 49,31 73,43 l 43,22 1297,-10 c 713,-6 1503,-13 1755,-16 526,-7 497,-14 400,89 l -55,60 -1497,12 c -823,7 -1640,13 -1816,13 l -320,1 z" />
      <path
         id="pq9NpFuhK"
         d="m 7480,7592 c 0,-17 7,-57 15,-89 13,-50 15,-315 15,-2090 V 3380 h 125 c 104,0 125,2 125,15 0,8 -7,15 -15,15 -13,0 -15,237 -17,2008 -3,1935 -4,2008 -22,2042 -36,68 -97,120 -165,140 -14,4 -34,11 -43,15 -15,6 -18,2 -18,-23 z" />
      <path
         id="pNWoZLIbW"
         d="m 10814,7574 c 3,-27 9,-66 12,-87 9,-55 -18,-117 -75,-170 -26,-24 -65,-50 -87,-58 -32,-12 -256,-14 -1350,-14 -872,0 -1308,-3 -1303,-10 40,-53 90,-100 123,-118 l 41,-22 h 1350 1350 l 40,22 c 47,25 96,74 121,123 13,25 19,56 19,110 0,83 -15,121 -69,178 -32,35 -71,59 -115,72 -14,4 -35,11 -45,16 -17,7 -18,4 -12,-42 z" />
      <path
         id="ppiE1l6cj"
         d="m 9324,5504 c 3,-27 9,-66 12,-87 9,-55 -18,-117 -75,-170 -79,-74 -61,-72 -662,-72 -355,0 -533,-3 -528,-10 40,-53 90,-100 123,-118 41,-22 44,-22 616,-22 570,0 575,0 615,22 47,25 96,74 121,123 13,25 19,56 19,110 0,83 -15,121 -69,178 -32,35 -71,59 -115,72 -14,4 -35,11 -45,16 -17,7 -18,4 -12,-42 z" />
      <path
         id="pgHXM3XSF"
         d="m 10803,5504 c 3,-27 9,-66 13,-87 9,-55 -18,-116 -75,-170 -78,-73 -71,-72 -562,-72 -288,0 -433,-3 -428,-10 40,-53 90,-100 123,-118 40,-22 47,-22 516,-22 468,0 476,0 515,22 47,25 96,74 121,123 13,25 19,56 19,110 0,83 -15,121 -69,178 -32,35 -71,59 -115,72 -14,4 -34,11 -45,15 -17,7 -18,4 -13,-41 z" />
      <path
         id="p1DP5qs27x"
         d="m 9560,5423 c 0,-37 21,-122 32,-129 16,-10 3,88 -16,123 -14,26 -15,26 -16,6 z" />
      <path
         id="p5NCg7pDn"
         d="m 10734,3254 c 3,-27 9,-66 12,-86 3,-20 0,-53 -6,-74 -17,-50 -85,-122 -140,-148 -45,-21 -48,-21 -1655,-27 -885,-4 -1636,-10 -1667,-14 -41,-5 -55,-10 -48,-18 46,-59 90,-102 123,-119 53,-26 132,-34 182,-17 33,11 331,15 1650,19 l 1610,5 40,22 c 47,25 96,74 121,123 13,25 19,56 19,110 0,83 -15,121 -69,178 -32,35 -71,59 -115,72 -14,4 -35,11 -45,16 -17,7 -18,4 -12,-42 z" />
    </g>
  </g>
  <g
     id="l66Vwl3r97wYfGH9PxYkNCg"
     fill="#00fa05"
     transform="matrix(0.0225018,0,0,0.0225018,-80.407079,3.2316576)"
     style="display:inline">
    <g
       id="g291">
      <path
         id="p1DHgpipb2"
         d="m 7125,9098 c -16,-6 -205,-117 -420,-246 -214,-129 -424,-255 -465,-280 -247,-148 -334,-207 -371,-251 -64,-78 -61,126 -44,-2731 8,-1427 16,-2625 19,-2661 9,-126 39,-163 320,-399 189,-158 394,-331 552,-465 71,-60 169,-143 218,-185 49,-41 137,-116 195,-165 190,-163 228,-189 291,-196 92,-12 3469,-10 3520,2 71,16 134,53 269,156 69,54 205,158 302,233 97,74 279,214 404,310 374,286 397,309 414,410 6,31 14,937 20,2085 6,1117 12,2217 14,2445 2,452 -1,483 -56,557 -23,31 -394,434 -817,886 -107,115 -221,239 -252,275 -32,37 -80,90 -106,118 -85,88 21,81 -1512,93 -740,6 -1597,13 -1905,16 -403,3 -568,1 -590,-7 z m 2206,-522 1497,-12 56,-62 c 32,-33 65,-62 75,-64 10,-2 58,-46 107,-98 129,-138 561,-604 692,-747 l 113,-122 -11,-1773 c -5,-975 -13,-2026 -16,-2335 l -6,-563 -202,-154 c -110,-85 -336,-258 -501,-385 l -300,-231 -1660,1 H 7515 l -96,82 c -96,83 -437,370 -623,526 -56,46 -146,123 -201,171 -55,47 -135,114 -177,149 -43,34 -78,63 -79,64 -2,4 -28,4218 -28,4599 l -1,396 273,165 c 149,91 362,220 472,286 l 200,121 290,-1 c 160,0 963,-6 1786,-13 z" />
      <path
         id="p19ED0N32r"
         d="m 7215,7720 c -54,-18 -121,-76 -146,-127 l -24,-48 -3,-2225 c -2,-1541 0,-2236 8,-2262 14,-49 89,-130 142,-153 24,-11 46,-24 49,-29 8,-10 95,-10 112,1 7,4 737,10 1622,13 1608,5 1610,5 1655,26 55,26 123,98 140,148 8,25 10,63 6,109 -4,40 -7,81 -8,92 -2,27 -98,114 -145,131 -31,11 -305,13 -1560,14 H 7540 v 2033 c 0,1720 -2,2041 -14,2087 -8,30 -12,58 -10,62 5,8 -89,98 -122,116 -32,17 -141,24 -179,12 z" />
      <path
         id="pfg1yIlb8"
         d="m 7995,7719 c -52,-16 -121,-74 -144,-122 -28,-57 -36,-130 -22,-184 15,-53 87,-134 143,-158 24,-11 49,-25 56,-33 11,-10 267,-12 1325,-10 1308,3 1312,3 1357,24 55,26 123,98 140,148 8,25 10,63 6,109 -4,40 -7,81 -8,92 -2,27 -98,114 -145,131 -31,11 -271,13 -1358,13 -767,-1 -1333,-5 -1350,-10 z" />
      <path
         id="pEY3VkGcS"
         d="m 8055,5649 c -52,-16 -121,-74 -144,-122 -28,-58 -36,-130 -21,-186 14,-52 108,-153 154,-165 15,-4 35,-14 43,-22 13,-13 87,-14 552,-12 520,3 537,4 581,24 55,26 123,98 140,148 8,25 10,63 6,109 -4,40 -7,81 -8,92 -2,27 -98,114 -145,131 -30,10 -149,13 -583,13 -300,-1 -558,-5 -575,-10 z" />
      <path
         id="pw46uA4ww"
         d="m 9738,5650 c -42,-13 -115,-67 -137,-103 -33,-54 -45,-127 -31,-194 11,-49 20,-65 69,-113 31,-31 69,-60 85,-64 15,-4 35,-14 43,-22 13,-13 75,-15 452,-12 497,3 486,2 568,90 52,57 67,105 59,189 -3,35 -7,75 -8,89 -3,32 -94,117 -145,136 -30,10 -133,13 -483,13 -245,-1 -457,-4 -472,-9 z" />
    </g>
  </g>
</svg>
