<?xml version="1.0" encoding="UTF-8" standalone="no"?>
<svg
   width="256"
   height="256"
   viewBox="0 0 252.06154 252.06153"
   version="1.1"
   preserveAspectRatio="xMidYMid"
   id="voidlogo"
   sodipodi:docname="evolution-logo.svg"
   inkscape:version="1.2.2 (b0a8486541, 2022-12-01)"
   xmlns:inkscape="http://www.inkscape.org/namespaces/inkscape"
   xmlns:sodipodi="http://sodipodi.sourceforge.net/DTD/sodipodi-0.dtd"
   xmlns="http://www.w3.org/2000/svg"
   xmlns:svg="http://www.w3.org/2000/svg">
  <sodipodi:namedview
     id="namedview580"
     pagecolor="#ffffff"
     bordercolor="#000000"
     borderopacity="0.25"
     inkscape:showpageshadow="2"
     inkscape:pageopacity="0.0"
     inkscape:pagecheckerboard="0"
     inkscape:deskcolor="#d1d1d1"
     showgrid="false"
     inkscape:zoom="1.2354824"
     inkscape:cx="-60.300333"
     inkscape:cy="146.50148"
     inkscape:window-width="1432"
     inkscape:window-height="831"
     inkscape:window-x="0"
     inkscape:window-y="0"
     inkscape:window-maximized="1"
     inkscape:current-layer="voidlogo" />
  <defs
     id="defs566" />
  <g
     id="l4cVTT6z5XHxErK78kle4Nm"
     fill="#b7b7b7"
     transform="matrix(0.0225018,0,0,0.0225018,-80.407079,3.2316576)">
    <g
       id="g266">
      <path
         id="p1DiHYDoCq"
         d="M 8240,10780 C 7209,10623 6318,10224 5520,9560 5359,9426 5014,9081 4880,8920 4134,8022 3709,6977 3620,5821 c -13,-173 -13,-589 0,-762 89,-1156 514,-2201 1260,-3099 134,-161 479,-506 640,-640 C 6402,587 7415,168 8555,65 c 94,-8 204,-19 245,-24 41,-5 145,-15 231,-21 368,-28 1004,58 1494,201 101,30 423,138 470,159 84,36 191,82 210,89 11,5 57,27 102,50 44,22 88,41 97,41 9,0 16,5 16,10 0,6 9,10 20,10 11,0 20,5 20,10 0,6 9,10 20,10 11,0 20,3 20,8 0,4 14,14 32,21 18,8 78,41 134,73 55,32 106,58 113,58 6,0 11,4 11,10 0,5 11,12 25,16 14,3 25,9 25,13 0,4 12,14 28,22 15,8 75,47 133,86 59,40 109,73 112,73 3,0 18,11 33,25 15,14 33,25 40,25 7,0 17,6 21,14 4,7 26,25 48,38 22,14 50,35 62,47 12,12 26,21 30,21 4,0 28,18 52,40 25,22 47,40 50,40 3,0 31,23 61,50 30,27 77,69 104,92 75,66 404,395 466,467 30,35 60,69 65,75 6,6 26,31 45,56 33,42 50,62 85,101 8,9 15,19 15,24 0,5 7,15 15,24 35,36 118,146 126,168 5,13 13,23 19,23 5,0 10,7 10,15 0,8 5,15 10,15 6,0 10,7 10,15 0,8 4,15 8,15 5,0 15,12 23,28 8,15 17,29 20,32 21,17 204,321 262,435 143,284 182,368 260,566 468,1184 503,2532 97,3749 -217,651 -540,1228 -990,1770 -134,161 -489,516 -650,650 -537,446 -1114,770 -1755,985 -343,116 -509,150 -910,192 -140,14 -284,18 -825,19 -600,2 -666,1 -780,-16 z m 1160,-430 c 717,-37 1351,-198 1985,-505 518,-250 979,-578 1391,-989 1177,-1178 1704,-2830 1428,-4481 -130,-779 -457,-1543 -939,-2190 -269,-362 -623,-724 -973,-994 -114,-89 -381,-276 -412,-290 -8,-3 -41,-23 -72,-44 -32,-20 -68,-42 -80,-48 -13,-5 -41,-21 -63,-34 -22,-14 -71,-40 -110,-60 -38,-19 -84,-44 -102,-55 -17,-12 -41,-23 -53,-25 -12,-2 -50,-20 -86,-40 -35,-20 -64,-33 -64,-30 0,4 -20,-5 -45,-19 -25,-15 -45,-24 -45,-21 0,4 -16,-3 -35,-15 -19,-12 -35,-19 -35,-16 0,4 -11,-1 -25,-10 -14,-9 -25,-13 -25,-10 0,4 -11,-1 -25,-10 -14,-9 -25,-13 -25,-9 0,4 -7,2 -15,-5 -8,-7 -15,-9 -15,-6 0,4 -10,1 -22,-6 -13,-7 -26,-13 -30,-14 -5,-1 -10,-3 -13,-4 -3,-1 -9,-4 -15,-5 -5,-1 -12,-4 -15,-5 -3,-1 -9,-4 -15,-5 -5,-1 -11,-3 -12,-5 -2,-1 -11,-3 -20,-5 -33,-6 -93,-28 -105,-38 -7,-5 -13,-6 -13,-2 0,4 -7,2 -15,-5 -8,-7 -15,-9 -15,-5 0,4 -7,2 -15,-5 -8,-7 -15,-9 -15,-5 0,4 -6,2 -13,-4 -8,-6 -17,-8 -20,-4 -4,3 -13,0 -22,-7 -8,-7 -15,-9 -15,-5 0,4 -6,2 -13,-4 -8,-6 -17,-8 -20,-4 -4,3 -13,0 -22,-7 -8,-7 -15,-9 -15,-4 0,4 -5,3 -11,-3 -6,-6 -17,-9 -24,-7 -7,3 -16,1 -19,-5 -4,-6 -13,-8 -20,-5 -8,3 -17,1 -20,-5 -4,-6 -13,-8 -20,-5 -8,3 -17,1 -20,-5 -4,-6 -13,-8 -20,-5 -8,3 -17,1 -20,-4 -3,-6 -15,-8 -25,-5 -10,3 -22,0 -25,-6 -4,-5 -13,-8 -20,-5 -8,3 -17,1 -20,-4 -3,-6 -15,-8 -25,-5 -10,3 -22,0 -25,-5 -3,-6 -15,-8 -25,-5 -10,3 -22,0 -25,-5 -3,-6 -15,-8 -25,-5 -10,3 -22,0 -25,-6 -4,-6 -18,-8 -31,-5 -12,3 -26,1 -29,-4 -3,-6 -15,-8 -26,-5 -11,3 -26,0 -34,-6 -7,-6 -21,-9 -30,-5 -9,3 -24,3 -33,-1 -10,-4 -30,-7 -45,-6 -14,1 -29,-2 -32,-8 -4,-5 -21,-7 -40,-4 -18,3 -36,1 -40,-5 -3,-6 -23,-8 -45,-5 -22,3 -41,1 -45,-5 -4,-6 -27,-8 -60,-5 -32,3 -56,1 -60,-5 -4,-7 -33,-8 -80,-5 -41,3 -83,2 -93,-2 -27,-11 -413,-12 -413,-1 0,5 -37,6 -90,3 -63,-5 -90,-3 -90,4 0,8 -18,10 -60,5 -43,-5 -60,-4 -60,5 0,8 -14,9 -45,5 -31,-5 -45,-4 -45,4 0,8 -13,10 -40,5 -28,-5 -40,-3 -40,5 0,9 -11,10 -35,6 -23,-5 -35,-3 -35,4 0,7 -12,9 -35,4 -24,-4 -35,-3 -35,6 0,8 -10,9 -30,5 -19,-4 -30,-3 -30,4 0,6 -12,8 -30,5 -19,-4 -30,-2 -30,5 0,7 -9,9 -25,5 -16,-4 -25,-2 -25,5 0,7 -9,9 -25,5 -16,-4 -25,-2 -25,5 0,7 -9,9 -25,5 -14,-3 -25,-2 -25,4 0,6 -9,8 -20,5 -11,-3 -20,0 -20,6 0,7 -9,9 -25,5 -14,-3 -25,-2 -25,4 0,6 -9,8 -20,5 -11,-3 -20,-1 -20,5 0,6 -9,8 -20,5 -11,-3 -20,-1 -20,5 0,6 -9,8 -20,5 -11,-3 -20,-1 -20,3 0,5 -14,10 -31,10 -17,1 -34,5 -38,10 -3,5 -19,10 -36,11 -16,1 -31,7 -33,13 -2,5 -8,8 -13,4 -11,-6 -111,25 -119,37 -8,11 -87,39 -93,32 -9,-8 -111,29 -120,43 -4,7 -13,11 -21,8 -17,-6 -169,54 -178,71 -5,7 -16,11 -26,8 -10,-2 -29,7 -46,22 -15,14 -32,23 -37,19 -12,-7 -69,15 -69,27 0,12 -76,50 -84,42 -8,-9 -87,28 -80,38 5,9 -67,49 -90,49 -24,0 -66,22 -60,32 6,9 -2,12 -49,22 -15,4 -25,11 -22,16 6,10 -1,14 -48,24 -15,4 -25,10 -23,15 3,5 -8,11 -25,15 -17,3 -28,10 -24,16 3,5 -3,10 -14,10 -12,0 -20,6 -19,13 2,7 -9,13 -25,15 -15,2 -25,8 -22,13 4,5 -3,9 -15,9 -12,0 -18,5 -15,10 3,6 -3,10 -15,10 -12,0 -18,5 -15,10 3,6 -3,10 -15,10 -12,0 -18,4 -15,10 3,5 -3,10 -15,10 -12,0 -18,4 -15,10 3,5 -3,10 -15,10 -12,0 -18,5 -15,10 3,6 -3,10 -15,10 -12,0 -18,5 -15,10 3,6 -3,10 -14,10 -12,0 -21,7 -21,15 0,8 -9,15 -21,15 -11,0 -17,5 -14,10 3,6 -3,10 -14,10 -12,0 -20,6 -19,12 2,7 -7,14 -19,16 -13,2 -23,10 -23,18 0,8 -9,14 -20,14 -11,0 -20,6 -20,14 0,8 -10,16 -22,18 -13,2 -23,10 -23,18 0,8 -10,16 -23,18 -12,2 -20,7 -17,12 6,10 -14,27 -40,32 -11,2 -20,10 -20,18 0,8 -9,16 -20,18 -25,5 -46,22 -40,32 6,10 -15,27 -39,31 -11,2 -27,17 -36,33 -8,16 -23,33 -33,38 -9,4 -25,12 -34,16 -10,5 -23,19 -30,32 -14,28 -254,270 -267,270 -16,0 -45,31 -40,44 5,13 -23,43 -59,60 -12,7 -22,20 -22,30 0,11 -13,27 -30,36 -18,10 -29,24 -27,34 2,10 -6,20 -20,25 -13,4 -23,17 -23,27 0,10 -9,23 -21,29 -11,5 -19,16 -16,23 2,6 -8,16 -22,22 -18,6 -24,14 -20,25 5,11 0,18 -14,22 -13,3 -19,10 -15,20 4,9 -2,16 -15,20 -13,3 -19,10 -15,20 4,9 -2,16 -15,20 -13,3 -19,10 -15,19 3,8 -1,14 -11,14 -10,0 -13,6 -9,16 4,10 -1,17 -15,21 -13,3 -19,10 -15,19 3,8 -1,14 -11,14 -10,0 -13,6 -10,15 4,9 0,15 -10,15 -10,0 -13,6 -10,15 4,9 0,15 -10,15 -10,0 -13,6 -10,15 4,9 0,15 -10,15 -10,0 -13,6 -10,15 4,9 0,15 -10,15 -10,0 -13,6 -10,15 4,9 0,15 -10,15 -10,0 -13,6 -10,15 4,10 0,15 -11,15 -9,0 -14,4 -11,9 9,14 -4,41 -20,41 -8,0 -11,6 -8,15 4,10 0,15 -11,15 -9,0 -13,5 -10,10 3,6 2,10 -4,10 -6,0 -8,7 -5,15 4,10 0,15 -11,15 -9,0 -13,4 -10,10 3,5 1,10 -5,10 -6,0 -9,4 -6,9 9,14 -5,41 -21,41 -8,0 -11,4 -8,10 3,5 1,10 -5,10 -6,0 -9,4 -6,9 9,14 -5,41 -21,41 -8,0 -11,5 -8,10 3,5 1,10 -5,10 -6,0 -8,4 -5,10 3,5 1,10 -5,10 -6,0 -9,4 -5,9 8,14 -37,101 -53,101 -7,0 -10,4 -7,10 3,5 1,10 -5,10 -6,0 -8,5 -5,10 3,6 1,10 -5,10 -6,0 -8,5 -5,10 3,6 2,10 -4,10 -6,0 -8,6 -5,14 6,17 -32,96 -47,96 -6,0 -7,4 -4,10 3,5 1,10 -5,10 -6,0 -8,5 -5,10 3,6 2,10 -3,10 -6,0 -8,9 -5,19 3,11 -3,27 -15,39 -11,11 -18,23 -15,26 4,3 2,6 -4,6 -6,0 -9,9 -6,20 3,12 -1,22 -11,26 -9,3 -13,10 -10,15 3,5 1,9 -5,9 -6,0 -8,7 -5,15 4,8 1,15 -6,15 -6,0 -8,5 -5,10 3,6 2,10 -4,10 -6,0 -8,7 -5,15 4,8 1,15 -6,15 -6,0 -8,5 -5,10 3,6 2,10 -4,10 -6,0 -8,7 -5,15 4,8 2,15 -4,15 -6,0 -8,9 -5,20 3,12 -1,22 -10,26 -9,3 -13,12 -10,20 3,8 0,14 -6,14 -6,0 -8,7 -5,15 4,8 1,15 -5,15 -6,0 -8,7 -5,15 4,8 1,15 -6,15 -6,0 -8,5 -5,10 8,13 -23,110 -35,110 -5,0 -7,7 -4,15 4,8 1,15 -5,15 -6,0 -8,7 -5,15 4,8 1,15 -5,15 -6,0 -8,7 -5,15 4,8 2,15 -4,15 -6,0 -8,9 -5,20 3,11 0,20 -6,20 -5,0 -8,7 -5,15 4,8 2,15 -4,15 -6,0 -8,9 -5,20 3,11 0,20 -6,20 -5,0 -8,7 -5,15 4,8 2,15 -4,15 -6,0 -8,9 -5,20 3,11 1,20 -5,20 -6,0 -8,9 -5,20 3,11 1,20 -5,20 -6,0 -8,9 -5,20 3,11 1,20 -5,20 -6,0 -8,9 -5,20 3,11 1,20 -4,20 -6,0 -8,11 -5,25 2,14 0,25 -6,25 -6,0 -8,9 -5,20 3,11 1,20 -4,20 -6,0 -8,11 -5,25 2,14 0,25 -5,25 -6,0 -8,11 -5,25 2,14 0,25 -5,25 -6,0 -8,11 -5,25 2,14 0,25 -7,25 -6,0 -8,11 -5,30 4,17 2,30 -3,30 -5,0 -8,13 -5,30 2,17 0,30 -6,30 -7,0 -9,14 -5,35 3,19 1,35 -4,35 -5,0 -7,16 -5,35 2,20 0,35 -6,35 -6,0 -8,16 -5,40 3,24 2,40 -4,40 -6,0 -9,18 -5,45 3,28 1,45 -6,45 -6,0 -8,22 -5,60 4,37 2,60 -4,60 -7,0 -9,33 -5,90 2,50 1,90 -4,90 -5,0 -9,90 -9,200 0,110 4,200 9,200 5,0 6,40 4,90 -3,55 -2,93 4,96 6,4 8,31 6,60 -3,31 -1,54 5,54 5,0 7,19 5,45 -4,27 -1,45 5,45 6,0 7,16 4,40 -3,24 -1,40 5,40 6,0 8,15 6,35 -2,19 0,35 5,35 5,0 7,16 4,35 -4,21 -2,35 5,35 6,0 8,13 6,30 -3,17 0,30 5,30 5,0 7,13 4,30 -4,19 -2,30 4,30 7,0 9,11 7,25 -3,14 -1,25 5,25 5,0 7,11 5,25 -3,14 -1,25 5,25 5,0 7,11 5,25 -3,14 -1,25 5,25 5,0 7,9 4,20 -3,11 -1,20 5,20 6,0 8,11 6,25 -3,14 -1,25 5,25 5,0 7,9 4,20 -3,11 -1,20 5,20 6,0 8,9 5,20 -3,11 -1,20 5,20 6,0 8,9 5,20 -3,11 -1,20 5,20 6,0 8,9 5,20 -3,11 -1,20 5,20 6,0 8,7 4,15 -3,8 0,15 5,15 6,0 9,9 6,20 -3,11 -1,20 5,20 6,0 8,7 4,15 -3,8 0,15 5,15 6,0 9,9 6,20 -3,11 -1,20 5,20 6,0 8,7 4,15 -3,8 -1,15 5,15 6,0 9,7 5,15 -3,8 -1,15 5,15 6,0 9,7 5,15 -3,8 -2,15 2,15 8,0 38,99 34,113 -1,4 3,7 9,7 6,0 9,7 5,15 -3,8 -1,15 5,15 6,0 9,7 5,15 -3,8 -1,15 5,15 6,0 9,6 6,14 -3,8 -1,16 4,18 5,2 11,13 12,26 0,12 5,22 10,22 5,0 7,6 4,14 -3,8 -2,16 3,18 4,2 10,12 12,23 1,11 6,22 10,25 3,3 8,14 10,25 1,11 9,26 16,33 11,12 16,34 13,55 0,4 3,7 8,7 10,0 37,69 33,83 -1,4 3,7 9,7 5,0 7,5 4,10 -3,6 -2,10 3,10 9,0 58,110 54,123 -1,4 3,7 9,7 5,0 7,5 4,10 -3,6 -1,10 5,10 6,0 8,5 5,10 -3,6 -1,10 5,10 6,0 8,5 5,10 -3,6 -2,10 3,10 5,0 19,24 33,53 13,28 30,58 37,65 7,8 10,18 7,23 -4,5 -2,9 4,9 6,0 13,11 17,25 3,14 10,25 16,25 5,0 6,5 3,10 -3,6 -2,10 4,10 6,0 13,11 17,25 3,14 11,25 17,25 6,0 8,3 4,6 -3,3 3,15 13,27 11,11 17,24 14,29 -3,4 0,8 5,8 6,0 11,7 11,15 0,8 4,15 10,15 5,0 12,11 16,25 3,14 10,25 15,25 5,0 9,7 9,15 0,8 5,15 10,15 6,0 10,7 10,15 0,8 5,15 10,15 6,0 10,7 10,15 0,8 5,15 10,15 6,0 10,7 10,15 0,8 5,15 10,15 6,0 10,7 10,15 0,8 5,15 10,15 6,0 10,7 10,15 0,8 5,15 10,15 6,0 10,5 10,10 0,10 8,22 38,55 6,7 12,16 12,20 0,4 6,12 12,19 7,8 20,24 28,36 8,12 22,30 30,41 28,36 55,70 70,89 8,10 26,33 40,51 25,32 50,61 125,148 22,25 105,113 185,194 751,771 1751,1296 2805,1471 383,64 728,85 1095,66 z" />
    </g>
  </g>
  <g
     id="l6M4ekK75pc7cj6EK029rhc"
     fill="#a2a2a3"
     transform="matrix(0.0225018,0,0,0.0225018,-80.407079,3.2316576)"
     style="fill:#e6e6e6;fill-opacity:1">
    <ellipse
       style="fill:#e6e6e6;fill-opacity:1;stroke-width:1.24848"
       id="path910"
       ry="114.98534"
       rx="115.6967"
       cy="121.06808"
       cx="125.28648"
       transform="matrix(44.440889,0,0,44.440889,3573.3621,-143.61774)" />
    <g
       id="g269"
       style="fill:#e6e6e6;fill-opacity:1" />
  </g>
  <g
     id="l1CdawFHH5ATesj63pns9be"
     fill="#878788"
     transform="matrix(0.0225018,0,0,0.0225018,-80.407079,3.2316576)">
    <g
       id="g283" />
  </g>
  <g
     id="l66Vwl3r97wYfGH9PxYkNCg"
     fill="#00fa05"
     transform="matrix(0.0308083,0,0,0.02852429,-149.86551,-25.395588)"
     style="opacity:0.73;fill:#04e26e;fill-opacity:1">
    <g
       id="g291"
       style="fill:#04e26e;fill-opacity:1">
      <path
         id="p19ED0N32r"
         d="m 7215,7720 c -54,-18 -121,-76 -146,-127 l -24,-48 -3,-2225 c -2,-1541 0,-2236 8,-2262 14,-49 89,-130 142,-153 24,-11 46,-24 49,-29 8,-10 95,-10 112,1 7,4 737,10 1622,13 1608,5 1610,5 1655,26 55,26 123,98 140,148 8,25 10,63 6,109 -4,40 -7,81 -8,92 -2,27 -98,114 -145,131 -31,11 -305,13 -1560,14 H 7540 v 2033 c 0,1720 -2,2041 -14,2087 -8,30 -12,58 -10,62 5,8 -89,98 -122,116 -32,17 -141,24 -179,12 z"
         style="fill:#04e26e;fill-opacity:1" />
      <path
         id="pfg1yIlb8"
         d="m 7995,7719 c -52,-16 -121,-74 -144,-122 -28,-57 -36,-130 -22,-184 15,-53 87,-134 143,-158 24,-11 49,-25 56,-33 11,-10 267,-12 1325,-10 1308,3 1312,3 1357,24 55,26 123,98 140,148 8,25 10,63 6,109 -4,40 -7,81 -8,92 -2,27 -98,114 -145,131 -31,11 -271,13 -1358,13 -767,-1 -1333,-5 -1350,-10 z"
         style="fill:#04e26e;fill-opacity:1" />
      <path
         id="pEY3VkGcS"
         d="m 8055,5649 c -52,-16 -121,-74 -144,-122 -28,-58 -36,-130 -21,-186 14,-52 108,-153 154,-165 15,-4 35,-14 43,-22 13,-13 87,-14 552,-12 520,3 537,4 581,24 55,26 123,98 140,148 8,25 10,63 6,109 -4,40 -7,81 -8,92 -2,27 -98,114 -145,131 -30,10 -149,13 -583,13 -300,-1 -558,-5 -575,-10 z"
         style="fill:#04e26e;fill-opacity:1" />
      <path
         id="pw46uA4ww"
         d="m 9738,5650 c -42,-13 -115,-67 -137,-103 -33,-54 -45,-127 -31,-194 11,-49 20,-65 69,-113 31,-31 69,-60 85,-64 15,-4 35,-14 43,-22 13,-13 75,-15 452,-12 497,3 486,2 568,90 52,57 67,105 59,189 -3,35 -7,75 -8,89 -3,32 -94,117 -145,136 -30,10 -133,13 -483,13 -245,-1 -457,-4 -472,-9 z"
         style="fill:#04e26e;fill-opacity:1" />
    </g>
  </g>
  <g
     id="l5Edv2ooyvvjOuQ6FNPQS0y"
     fill="#1a201b"
     transform="matrix(0.0225018,0,0,0.0225018,-80.407079,3.2316576)">
    <g
       id="g295">
      <path
         id="p5h1R4Ejx"
         d="m 14334,4492 c -14,-12 -25,-43 -37,-102 -21,-105 -21,-100 3,-100 11,0 20,5 20,10 0,6 18,10 41,10 43,0 77,14 96,39 13,17 18,118 7,145 -9,23 -102,21 -130,-2 z" />
    </g>
  </g>
  <g
     id="l7jx8gNojnzaGyk5yhrf2Wo"
     fill="#0f1807"
     transform="matrix(0.0225018,0,0,0.0225018,-80.407079,3.2316576)">
    <g
       id="g302">
      <path
         id="pJ7D5HUS3"
         d="m 14720,5398 c -12,-68 -7,-308 6,-330 3,-4 16,-8 28,-8 32,0 36,26 36,236 v 174 h -29 c -28,0 -30,-2 -41,-72 z" />
      <path
         id="p11a7d4Vhe"
         d="m 14670,4942 c 0,-24 7,-46 20,-60 11,-12 20,-33 20,-47 0,-20 5,-25 24,-25 26,0 32,20 38,120 l 3,45 -53,3 -52,3 z" />
      <path
         id="p13ro8DXjN"
         d="m 14321,4520 c -16,-75 -15,-83 12,-74 12,3 29,13 38,20 8,8 25,14 37,14 18,0 22,6 22,30 0,25 -4,30 -35,36 -19,3 -35,10 -35,15 0,5 -6,9 -14,9 -9,0 -18,-19 -25,-50 z" />
      <path
         id="pugrJU7e"
         d="m 14267,4252 c -36,-156 -36,-187 3,-207 17,-9 30,-19 30,-24 0,-8 -80,-66 -101,-73 -5,-2 -18,-31 -28,-64 l -18,-61 48,-13 c 27,-8 49,-19 49,-26 0,-7 8,-15 18,-18 17,-6 18,-16 14,-112 -4,-84 -2,-108 9,-115 8,-5 44,-9 81,-9 h 68 l 18,37 c 18,37 39,102 62,191 6,23 15,42 20,42 6,0 10,18 10,41 0,64 29,177 50,192 21,14 54,130 45,155 -3,9 -29,32 -58,51 -46,30 -60,34 -119,35 -47,1 -68,5 -68,14 0,6 5,12 10,12 6,0 10,14 10,31 0,26 -3,30 -17,24 -38,-16 -62,-16 -85,-1 l -23,15 z m 132,-390 c -9,-64 -27,-121 -28,-88 -1,33 21,146 28,146 4,0 4,-26 0,-58 z" />
    </g>
  </g>
  <g
     id="l2oZnUejT8FMiiZAu8S4fT4"
     fill="#091003"
     transform="matrix(0.0225018,0,0,0.0225018,-80.407079,3.2316576)">
    <g
       id="g307">
      <path
         id="phNmzlIvm"
         d="m 14626,5678 c -11,-23 -22,-74 -25,-113 -4,-50 -13,-79 -29,-102 -12,-17 -22,-39 -22,-48 0,-19 -22,-40 -57,-55 -13,-5 -23,-16 -23,-25 0,-8 -4,-15 -10,-15 -5,0 -10,-9 -10,-20 0,-11 -7,-23 -15,-26 -8,-4 -15,-15 -15,-25 0,-10 -4,-19 -9,-19 -10,0 -15,-36 -31,-245 -6,-77 -22,-218 -35,-314 -20,-140 -22,-177 -12,-189 10,-13 9,-15 -8,-9 -20,7 -20,7 -1,-8 23,-17 33,-19 40,-6 3,5 -1,11 -9,15 -8,3 -15,11 -15,17 0,8 4,8 15,-1 12,-10 14,-8 10,9 -2,12 0,19 6,16 5,-4 9,-14 10,-23 0,-14 2,-13 9,3 7,17 9,17 9,3 1,-10 7,-18 15,-18 17,0 26,-22 26,-58 -1,-30 -15,-53 -44,-69 -10,-6 -24,-27 -31,-46 -7,-20 -9,-34 -4,-31 15,9 10,-13 -6,-26 -8,-7 -15,-17 -15,-22 0,-17 -44,-68 -58,-68 -12,0 -12,4 2,19 10,11 16,26 13,33 -4,9 -6,8 -6,-4 -1,-10 -7,-15 -19,-11 -15,4 -21,-8 -36,-74 -10,-43 -21,-83 -23,-90 -3,-6 6,-13 19,-15 23,-4 23,-4 -5,-18 -17,-8 -30,-25 -35,-44 -8,-28 -6,-31 14,-34 13,-2 31,1 41,7 12,6 25,6 38,-2 18,-9 18,-9 7,5 -11,14 -8,19 20,39 18,12 35,24 37,25 11,9 -26,67 -50,80 -36,18 -36,29 -1,51 15,9 37,26 50,37 13,12 42,25 64,31 48,12 66,37 21,29 -15,-2 -35,-7 -43,-10 -11,-4 -12,-2 -4,6 16,16 84,31 84,18 0,-5 9,-7 19,-3 19,6 107,-45 124,-72 29,-46 50,26 107,362 40,238 46,305 29,316 -11,7 -10,9 4,9 9,0 17,5 17,10 0,6 -7,10 -15,10 -8,0 -15,5 -15,10 0,6 -9,20 -20,32 -29,31 -25,41 14,34 41,-8 46,2 46,84 0,40 -4,59 -14,63 -36,14 -26,347 10,347 11,0 14,25 14,124 0,68 -3,131 -6,140 -5,12 -21,16 -73,16 l -66,-1 z m -99,-1205 c -2,-16 -4,-5 -4,22 0,28 2,40 4,28 2,-13 2,-35 0,-50 z m -4,-120 3,-63 h -33 -33 l 25,50 c 14,27 26,62 26,77 2,40 7,9 12,-64 z" />
      <path
         id="pvaFrYIhg"
         d="m 14578,4067 c -30,-24 -58,-117 -58,-194 0,-24 -4,-43 -10,-43 -5,0 -14,-19 -20,-42 -41,-161 -71,-228 -101,-228 -17,0 -19,5 -15,38 2,20 16,78 30,127 14,50 28,110 31,134 3,23 7,47 10,51 13,21 -9,40 -45,40 h -38 l -10,-67 c -6,-38 -17,-124 -25,-193 -10,-89 -15,-109 -16,-70 0,30 4,73 9,95 12,49 5,72 -22,81 -20,6 -20,7 8,19 l 29,13 -40,1 c -22,1 -60,8 -84,17 -24,8 -45,13 -46,12 -9,-12 -32,-98 -27,-102 4,-2 35,-7 68,-11 l 61,-7 -1,-91 c -1,-83 1,-94 22,-115 17,-17 33,-22 76,-22 80,0 99,20 137,143 17,56 35,111 39,122 17,41 33,101 36,134 1,19 7,37 12,40 5,3 14,29 21,56 6,28 14,58 17,68 7,24 -15,22 -48,-6 z" />
    </g>
  </g>
  <g
     id="l2SGngnBYD9pNfGXAcN2BL0"
     fill="#060901"
     transform="matrix(0.0225018,0,0,0.0225018,-80.407079,3.2316576)">
    <g
       id="g316">
      <path
         id="pvQMIeP2P"
         d="m 14630,5734 c -20,-4 -28,-14 -37,-47 -46,-180 -63,-214 -136,-278 l -52,-46 -10,-171 c -5,-93 -7,-168 -4,-166 4,2 9,-5 12,-16 3,-11 12,-20 21,-20 23,0 20,36 -5,53 -13,9 -16,17 -10,22 6,3 11,1 11,-4 0,-6 5,-11 10,-11 7,0 7,6 0,19 -5,11 -10,35 -9,53 1,30 2,31 8,8 6,-21 9,-16 16,30 5,30 8,61 8,67 0,7 3,10 8,7 5,-3 12,8 15,25 4,17 13,31 20,31 8,0 11,6 8,15 -4,9 3,18 17,25 37,15 59,36 59,55 0,9 10,31 22,48 16,23 25,52 29,102 3,39 14,90 25,114 l 19,42 58,-5 c 57,-6 58,-5 51,17 -3,12 -7,23 -9,24 -4,6 -122,11 -145,7 z" />
      <path
         id="pBEw1lSB8"
         d="m 14453,5003 c -6,-13 -9,-32 -6,-43 4,-16 11,-19 32,-14 52,13 90,43 91,72 0,9 -16,12 -53,10 -45,-2 -55,-6 -64,-25 z m 67,-7 c 0,-7 -11,-16 -25,-18 -29,-6 -33,6 -7,21 24,14 32,13 32,-3 z" />
      <path
         id="pNPLBCtxC"
         d="m 14501,4657 c -5,-12 -11,-71 -15,-130 -6,-110 -18,-148 -75,-232 -29,-43 -27,-47 25,-39 33,5 66,1 124,-16 85,-24 110,-22 110,10 0,15 -7,20 -25,20 -40,0 -85,27 -86,53 -5,89 -3,257 4,257 10,0 9,32 -4,69 -13,37 -45,42 -58,8 z" />
      <path
         id="ptrUwJ3fa"
         d="m 14217,4043 c -10,-37 -17,-72 -15,-78 4,-14 39,-7 70,16 15,10 32,19 38,19 26,0 7,41 -29,64 -21,14 -41,30 -43,36 -2,7 -12,-19 -21,-57 z" />
      <path
         id="p12o5U0WT5"
         d="m 14563,3982 c -17,-11 -36,-93 -24,-105 16,-16 38,-1 44,30 4,15 9,38 13,49 6,22 -14,38 -33,26 z" />
      <path
         id="pZfFXkqcE"
         d="m 14513,3807 c -5,-7 -20,-50 -33,-97 -36,-131 -63,-170 -117,-170 -20,0 -62,30 -63,45 0,3 -3,11 -6,19 -3,8 -1,40 5,72 18,94 20,91 -56,99 -38,4 -75,11 -84,16 -13,6 -18,3 -23,-14 -3,-12 -6,-25 -6,-29 0,-3 28,-9 63,-13 l 64,-7 -1,-90 c -1,-86 0,-91 27,-114 40,-34 127,-35 161,-1 18,18 106,249 106,278 0,13 -29,17 -37,6 z" />
    </g>
  </g>
  <g
     id="l5a7AsPoVolIqriccWRQsx7"
     fill="#050301"
     transform="matrix(0.0225018,0,0,0.0225018,-80.407079,3.2316576)">
    <g
       id="g323">
      <path
         id="pbAQG97Vm"
         d="m 10085,10730 c 907,-194 1688,-572 2395,-1160 161,-134 516,-489 650,-650 450,-542 773,-1119 990,-1770 183,-548 277,-1116 281,-1689 0,-90 4,-160 7,-155 4,5 39,38 79,73 40,35 71,66 71,70 -1,3 3,16 10,28 11,20 29,79 56,181 9,35 15,42 36,44 35,2 45,1 87,-7 l 36,-6 -6,115 c -15,259 -68,584 -147,901 -199,803 -564,1519 -1110,2175 -134,161 -479,506 -640,640 -800,665 -1705,1070 -2725,1219 -194,29 -225,25 -70,-9 z" />
      <path
         id="phe703W2u"
         d="m 14483,4372 c -7,-4 -26,-28 -42,-52 l -30,-45 34,-3 c 19,-2 50,-2 69,0 l 34,3 -20,53 c -20,53 -24,57 -45,44 z" />
      <path
         id="pcM50ESaW"
         d="m 14619,4235 c 18,-8 38,-12 44,-8 13,8 -19,21 -53,22 -23,0 -22,-1 9,-14 z" />
      <path
         id="pY08IMx4G"
         d="m 14515,3798 c -4,-13 -28,-99 -30,-108 0,-3 -9,-29 -20,-59 -32,-87 -91,-122 -143,-85 -37,26 -45,59 -32,137 7,37 10,70 9,72 -5,4 -86,14 -121,14 -20,1 -28,6 -29,19 0,9 -24,-50 -53,-133 -104,-296 -264,-646 -416,-910 -55,-96 -232,-374 -260,-408 -5,-6 -38,-50 -72,-97 -35,-47 -66,-89 -70,-95 -27,-37 -188,-231 -242,-292 -62,-72 -393,-400 -471,-469 -132,-116 -344,-283 -430,-338 -16,-11 -34,-23 -40,-28 -5,-5 -73,-51 -151,-101 -77,-51 -149,-98 -160,-105 -10,-6 -25,-15 -32,-18 -8,-4 -75,-41 -150,-83 C 11321,553 11035,428 10710,320 10162,137 9599,44 9017,38 8755,36 8908,22 9286,14 c 529,-12 916,31 1419,156 803,199 1519,564 2175,1110 161,134 506,479 640,640 442,531 768,1108 984,1739 25,73 46,137 46,142 0,14 -30,11 -35,-3 z" />
    </g>
  </g>
</svg>
